<?xml version="1.0" encoding="UTF-8"?>
<!DOCTYPE svg PUBLIC "-//W3C//DTD SVG 1.1//EN" "http://www.w3.org/Graphics/SVG/1.1/DTD/svg11.dtd">
<!-- Creator: CorelDRAW 2020 (64 Bit) -->
<svg xmlns="http://www.w3.org/2000/svg" xml:space="preserve" width="1118.66mm" height="1032.93mm" version="1.1" style="shape-rendering:geometricPrecision; text-rendering:geometricPrecision; image-rendering:optimizeQuality; fill-rule:evenodd; clip-rule:evenodd"
viewBox="0 0 111865.9 103293.4"
 xmlns:xlink="http://www.w3.org/1999/xlink"
 xmlns:xodm="http://www.corel.com/coreldraw/odm/2003">
 <defs>
  <style type="text/css">
   <![CDATA[
    .str0 {stroke:#F3F9FE;stroke-width:20;stroke-miterlimit:22.9256}
    .fil0 {fill:#E5F4F7}
   ]]>
  </style>
 </defs>
 <g id="Camada_x0020_1">
  <metadata id="CorelCorpID_0Corel-Layer"/>
  <path class="fil0 str0" d="M45923.36 2287.17l-6588.19 767.26 -5820.84 2381.25 -8043.33 4074.59 -5132.92 3545.42c-1673.7,1790.18 -3298.32,3525.59 -5032.32,5262.23 -688.5,689.55 -1039.94,1128.1 -1614.18,1910.5 -523.64,713.46 -935.81,1289.5 -1400.93,2048.28 -951.34,1552 -1133.02,1694.01 -2631.02,2649 -584.58,372.67 -1087.44,684.31 -1379.3,1332.43 -59.58,132.3 -116.2,266.05 -175.89,398.71 -491.85,1065.47 -954.53,2144.81 -1429.89,3217.75 -422.47,952.47 -900.14,1956.76 -1276.61,2924.34l-20.65 53.06c-606.42,1634.52 -1211.53,3270.24 -1814.45,4906.05 -108.24,293.64 -275.06,1294.35 -349.58,1666.99 -360.37,1802.03 -720.75,3604.07 -1081.12,5406.11l-19.66 98.29 -200.11 4056.7 -157.2 3000.98 432.49 2502.34 635 3757.08 1905 4497.92 2540 4021.67 3280.83 4709.59 2063.75 2645.83 2381.25 1534.58 4180.42 2540 2963.34 1799.17 1587.5 1164.17 4127.63 1534.66 9128.13 3201.46 6905.62 1905 6323.55 2301.88 7858.13 3333.75 7990.42 3254.38 5556.25 1746.25 3280.84 1058.33 4074.58 661.46 3545.42 52.92 5159.38 -132.29 2804.59 -714.38 3413.12 -1428.75 3227.92 -1746.25 2989.79 -2460.63 3201.46 -3942.29 2619.38 -4021.67 2037.29 -3783.54 1296.46 -3413.13 196 -2222.5 0 -5106.47 157.14 -5144.19 -594.95 -4704.4 -711.1 -3568.32c-307.54,-844.91 -586.2,-1692.18 -970.47,-2504.58 -298.38,-630.81 -602.54,-1312.19 -920.14,-1927.63 -216.21,-418.96 -874.62,-1197.72 -1184.66,-1659.69 -565.53,-842.67 -845.81,-1411.64 -1167.98,-2370.32 -386.36,-1149.75 -1321.67,-1965.07 -2155.06,-2798.97 -623.32,-623.71 -1461.01,-1285.92 -1983.33,-1958.44 -454.16,-584.78 -792.61,-1077.69 -1303.03,-1633.98 -1328.27,-1447.66 -2656.36,-2895.47 -3984.21,-4343.52 -450.12,-490.85 -900.23,-981.71 -1350.34,-1472.56 -1350.34,-1472.56 -2700.69,-2945.13 -4051.02,-4417.69 -4073.53,-4442.23 -8147.06,-8884.46 -12220.58,-13326.69l-270.07 -294.51 -12409.36 -10752.95 -4538.99 -2873.79 -5494.11 -2051.8 -6606.08 -1210.55 -8367.2 831.36 6588.19 -767.26z"/>
 </g>
</svg>
