<?xml version="1.0" encoding="UTF-8"?>
<!DOCTYPE svg PUBLIC "-//W3C//DTD SVG 1.1//EN" "http://www.w3.org/Graphics/SVG/1.1/DTD/svg11.dtd">
<!-- Creator: CorelDRAW 2020 (64 Bit) -->
<svg xmlns="http://www.w3.org/2000/svg" xml:space="preserve" width="1118.66mm" height="1032.93mm" version="1.1" style="shape-rendering:geometricPrecision; text-rendering:geometricPrecision; image-rendering:optimizeQuality; fill-rule:evenodd; clip-rule:evenodd"
viewBox="0 0 111865.9 103293.4"
 xmlns:xlink="http://www.w3.org/1999/xlink"
 xmlns:xodm="http://www.corel.com/coreldraw/odm/2003">
 <defs>
  <style type="text/css">
   <![CDATA[
    .str0 {stroke:#F3F9FE;stroke-width:20;stroke-miterlimit:22.9256}
    .fil0 {fill:#F3F9FE}
    .fil10 {fill:#2F2E41;fill-rule:nonzero}
    .fil11 {fill:#3991F7;fill-rule:nonzero}
    .fil8 {fill:#3F3D56;fill-rule:nonzero}
    .fil9 {fill:#9E616A;fill-rule:nonzero}
    .fil4 {fill:#CACACA;fill-rule:nonzero}
    .fil5 {fill:#CCCCCC;fill-rule:nonzero}
    .fil6 {fill:#E4E4E4;fill-rule:nonzero}
    .fil2 {fill:#E6E6E6;fill-rule:nonzero}
    .fil1 {fill:#F0F0F0;fill-rule:nonzero}
    .fil3 {fill:#F2F2F2;fill-rule:nonzero}
    .fil12 {fill:#FFB6B6;fill-rule:nonzero}
    .fil13 {fill:#FFB8B8;fill-rule:nonzero}
    .fil7 {fill:white;fill-rule:nonzero}
   ]]>
  </style>
 </defs>
 <g id="Camada_x0020_1">
  <metadata id="CorelCorpID_0Corel-Layer"/>
  <path class="fil0 str0" d="M46777.72 2743.5l-6588.19 767.26 -5820.84 2381.25 -8043.33 4074.59 -5132.92 3545.42c-1673.7,1790.18 -3298.32,3525.59 -5032.32,5262.23 -688.5,689.55 -1039.94,1128.1 -1614.18,1910.5 -523.64,713.46 -935.81,1289.5 -1400.93,2048.28 -951.34,1552 -1133.02,1694.01 -2631.02,2649 -584.58,372.67 -1087.44,684.31 -1379.3,1332.43 -59.58,132.3 -116.2,266.05 -175.89,398.71 -491.85,1065.47 -954.53,2144.81 -1429.89,3217.75 -422.47,952.47 -900.14,1956.76 -1276.61,2924.34l-20.65 53.06c-606.42,1634.52 -1211.53,3270.24 -1814.45,4906.05 -108.24,293.64 -275.06,1294.35 -349.58,1666.99 -360.37,1802.03 -720.75,3604.07 -1081.12,5406.11l-19.66 98.29 -200.11 4056.7 -157.2 3000.98 432.49 2502.34 635 3757.08 1905 4497.92 2540 4021.67 3280.83 4709.59 2063.75 2645.83 2381.25 1534.58 4180.42 2540 2963.34 1799.17 1587.5 1164.17 4127.63 1534.66 9128.13 3201.46 6905.62 1905 6323.55 2301.88 7858.13 3333.75 7990.42 3254.38 5556.25 1746.25 3280.84 1058.33 4074.58 661.46 3545.42 52.92 5159.38 -132.29 2804.59 -714.38 3413.12 -1428.75 3227.92 -1746.25 2989.79 -2460.63 3201.46 -3942.29 2619.38 -4021.67 2037.29 -3783.54 1296.46 -3413.13 196 -2222.5 0 -5106.47 157.14 -5144.19 -594.95 -4704.4 -711.1 -3568.32c-307.54,-844.91 -586.2,-1692.18 -970.47,-2504.58 -298.38,-630.81 -602.54,-1312.19 -920.14,-1927.63 -216.21,-418.96 -874.62,-1197.72 -1184.66,-1659.69 -565.53,-842.67 -845.81,-1411.64 -1167.98,-2370.32 -386.36,-1149.75 -1321.67,-1965.07 -2155.06,-2798.97 -623.32,-623.71 -1461.01,-1285.92 -1983.33,-1958.44 -454.16,-584.78 -792.61,-1077.69 -1303.03,-1633.98 -1328.27,-1447.66 -2656.36,-2895.47 -3984.21,-4343.52 -450.12,-490.85 -900.23,-981.71 -1350.34,-1472.56 -1350.34,-1472.56 -2700.69,-2945.13 -4051.02,-4417.69 -4073.53,-4442.23 -8147.06,-8884.46 -12220.58,-13326.69l-270.07 -294.51 -12409.36 -10752.95 -4538.99 -2873.79 -5494.11 -2051.8 -6606.08 -1210.55 -8367.2 831.36 6588.19 -767.26z"/>
  <path class="fil1" d="M35450.3 68069.22l0 -12785.18c0.07,-380.18 308.37,-688.47 688.51,-688.47 380.15,0 688.44,308.29 688.44,688.44l0 12785.17c0,380.19 -308.29,688.48 -688.44,688.48 -380.14,0 -688.44,-308.29 -688.44,-688.44l-0.07 0z"/>
  <path class="fil1" d="M33802.96 68069.22l0 -12785.18c0.08,-380.18 308.37,-688.47 688.52,-688.47 380.14,0 688.44,308.29 688.44,688.44l0 12785.17c0,380.19 -308.3,688.48 -688.44,688.48 -380.15,0 -688.44,-308.29 -688.44,-688.44l-0.08 0z"/>
  <path class="fil1" d="M32155.63 68069.22l0 -12785.18c0.07,-380.18 308.37,-688.47 688.51,-688.47 380.15,0 688.44,308.29 688.44,688.44l0 12785.17c0,380.19 -308.29,688.48 -688.44,688.48 -380.14,0 -688.44,-308.29 -688.44,-688.44l-0.07 0z"/>
  <path class="fil2" d="M94351.11 88489.72c-0.26,-0.08 -1.45,-0.08 -1.75,-0.08 -276.44,0 -551.69,-47.84 -811.7,-141.13l-40.25 -14.5 18.55 -89.03c-467.35,-944.21 -303.99,-2237.67 418.28,-3301.28 656.66,-966.85 1655.1,-1669.78 2536.01,-2289.94 115.38,-81.14 253.24,-124.89 394.34,-124.89 378.37,0 685.17,306.8 685.17,685.17 0,43.89 -4.27,87.9 -12.63,130.98l-315.03 1616.23c-227.33,1165.97 -497.79,2269.49 -1299.82,2957.64 -440.51,368.36 -996.66,570.79 -1571.1,570.79l-0.07 0.04z"/>
  <path class="fil2" d="M96414.09 91282.54c-619.75,-3.57 -1196.12,-320.82 -1530.62,-842.44l-22.86 -35.53 54.45 -48.03c140.88,-768.91 803.78,-1453.97 1693.8,-1748.66 808.98,-267.78 1701.97,-223.95 2489.33,-185.44l0 0.07c280.19,13.57 500.5,244.77 500.5,525.37 0,148.87 -63.12,290.94 -173.66,390.63l-885.89 799.66c-643.76,580.97 -1285.81,1105.53 -2060.3,1143.11 -21.64,0.89 -43.2,1.3 -64.75,1.26z"/>
  <path class="fil3" d="M93664.79 92137.39c-130.84,-974.17 -265.33,-1960.83 -173.59,-2945.44 81.52,-874.44 342.45,-1728.52 873.74,-2428.81 280.38,-369.11 624.28,-687.74 1013.94,-939.23 101.4,-65.43 194.74,98.83 93.78,163.99 -675.84,438.77 -1196.67,1080.97 -1486.05,1832.82 -323.57,841.36 -375.53,1758.47 -319.78,2652.21 33.72,540.5 105.2,1077.43 177.2,1613.65 1.71,7.85 2.63,15.61 2.63,23.38 0,42.53 -27.24,80.29 -67.61,93.67 -7.88,2.12 -15.98,3.2 -24.12,3.2 -42.34,0 -79.4,-28.55 -90.14,-69.51l0 0.07z"/>
  <path class="fil3" d="M93295.05 92697.37c629.67,-1138.98 1360.04,-2404.87 2665.11,-2809.47 278.37,-85.94 568.86,-130.03 860.42,-130.03 86.76,0 174.22,4.28 260.65,11.75 119.02,10.48 89.28,198.04 -29.52,187.56 -75.23,-6.32 -151.88,-9.63 -227.52,-9.63 -558.71,0 -1104.19,172.55 -1561.39,493.37 -504.41,351 -897.16,838.95 -1229.54,1356.4 -203.62,316.95 -385.98,647.37 -568.41,977.33 -58.29,105.45 -228.68,29.33 -169.73,-77.35l-0.07 0.07z"/>
  <path class="fil4" d="M93011.7 92680.72l635.8 14.53 -3833.6 -20479.71 -635.81 119.81 1001.05 5312.7 -3225.16 0.04 1001.05 -5312.71 -635.77 -119.8 -3801.57 20479.67 603.77 -14.53 1998.63 -10607.01 4892.94 0 1998.67 10607.01zm-6743.33 -11393.8l537.41 -2852.08 3521.63 0 537.42 2852.08 -4596.46 0z"/>
  <path class="fil1" d="M65249.61 68395.43l0 -6725.53c0,-199.68 308.81,-362.15 688.44,-362.15 379.62,0 688.44,162.47 688.44,362.15l0 6725.53c0,199.68 -308.82,362.16 -688.44,362.16 -379.63,0 -688.44,-162.48 -688.44,-362.16z"/>
  <path class="fil1" d="M63602.27 68395.43l0 -6725.53c0,-199.68 308.82,-362.15 688.44,-362.15 379.63,0 688.44,162.47 688.44,362.15l0 6725.53c0,199.68 -308.81,362.16 -688.44,362.16 -379.62,0 -688.44,-162.48 -688.44,-362.16z"/>
  <path class="fil1" d="M61954.98 68395.43l0 -6725.53c0,-199.68 308.81,-362.15 688.44,-362.15 379.62,0 688.44,162.47 688.44,362.15l0 6725.53c0,199.68 -308.82,362.16 -688.44,362.16 -379.63,0 -688.44,-162.48 -688.44,-362.16z"/>
  <path class="fil5" d="M75813.53 63449.49c-6.2,-41.33 -29.7,-78.13 -64.52,-101.18l-5190.12 -3426.29c78.17,-32.63 143.7,-90.02 186.26,-163.21l0.08 0.03c34.19,-59.69 52.26,-127.42 52.26,-196.26 0,-140.54 -74.83,-270.49 -196.26,-341.11l-425.87 -245.89c-59.69,-34.19 -127.46,-52.3 -196.3,-52.3 -140.5,0 -270.56,74.79 -341.11,196.26 -28.25,49.48 -45.31,104.75 -49.81,161.62l-3746.44 -2473.26c-254.4,-616.52 -768.25,-1090.26 -1403.38,-1294.03l-0.08 -1090.37 -1376.84 0 0 1090.52c-937.07,299.37 -1573.55,1170.91 -1573.55,2154.94l0 295.06 1376.84 0c-0.03,488.72 396.36,885.11 885.11,885.11 488.76,0 885.15,-396.39 885.15,-885.15l1376.88 0.04 0 -295.06c0,-141.4 -13.6,-282.69 -39.7,-421.52l9477.69 6256.88 -3937.13 4786.59c-30.59,-0.15 -61,-0.41 -91.77,-0.41 -314.1,0 -618.49,7.43 -908.46,20.22 15.21,-42.26 23.01,-86.91 23.01,-131.81 0,-6.65 -0.18,-13.45 -0.52,-20.03 -11.48,-209.09 -184.55,-372.86 -393.97,-372.86 -6.47,0 -12.97,0.18 -19.37,0.48l-491.06 25.57c-209.12,11.45 -372.9,184.52 -372.9,393.98 0,6.46 0.19,12.97 0.49,19.36 3.57,61.41 21.93,121.29 53.3,174.26 -868.31,92.29 -1431.04,219.49 -1431.04,284.21 0,106.04 1510.96,5.09 3402.06,0.22 20.74,58.8 76.35,98.13 138.68,98.13 44.05,0 85.83,-19.77 113.71,-53.82l36.46 -44.27c1885.56,5.24 3390.16,105.56 3390.16,-0.26 0,-99.77 -1337.74,-348 -3071.01,-387.81l3891.22 -4730.94c21.63,-26.39 33.49,-59.51 33.49,-93.67 0,-7.36 -0.56,-14.76 -1.67,-22.01l0.03 0.04z"/>
  <path class="fil6" d="M75955.49 92729.9l-12117.96 0c-509.87,-0.6 -923.21,-413.9 -923.66,-923.77l0 -19887.39c-0.52,-455.68 -369.81,-824.97 -825.34,-825.38l-28345.34 0.07c-455.45,0.34 -824.74,369.63 -825.26,825.19l-0.08 19887.55c-0.37,509.79 -413.71,923.13 -923.62,923.69l-414.67 0.04c-509.87,-0.6 -923.21,-413.94 -923.66,-923.85l-0.04 -20958.5c1.16,-1221.32 991.57,-2211.74 2212.97,-2212.81l41797.58 0c1221.35,1.07 2211.77,991.49 2212.85,2212.88l-0.04 20958.55c-0.52,509.87 -413.79,923.13 -923.69,923.69l-0.04 0.04z"/>
  <rect class="fil7" x="62963.03" y="73797.96" width="13867.03" height="590.09"/>
  <rect class="fil7" x="62963.03" y="81764.13" width="13867.03" height="590.09"/>
  <path class="fil2" d="M51484.27 68537.61l-398.54 -167.83 -273.39 -1997.92 -3640.88 0 -296.36 1989.78 -356.58 178.27c-28.58,14.35 -46.72,43.68 -46.72,75.72 0,46.76 37.91,84.68 84.63,84.68l4894.98 0c0.04,0 0.04,0 0.04,0 46.76,0 84.68,-37.92 84.68,-84.68 0,-34.08 -20.45,-64.82 -51.82,-78.06l-0.04 0.04z"/>
  <path class="fil5" d="M57954.29 66637.7l-17884.86 0c-195.29,-0.41 -353.49,-159.02 -353.49,-354.39l-0.04 -2521.96 18591.96 0 0 2522c0.03,195.33 -158.16,353.94 -353.53,354.31l-0.04 0.04z"/>
  <path class="fil8" d="M58326.55 64953.31l-18626.97 0 0 -10791.12c0.26,-235.77 191.43,-426.94 427.21,-427.16l17772.6 0.03c235.81,0.19 426.94,191.32 427.2,427.1l-0.04 10791.15z"/>
  <path class="fil7" d="M57214.03 64170.08l-16401.96 0c-181.69,-0.15 -329.08,-147.53 -329.22,-329.29l-0.08 -8993.21c0.22,-181.8 147.61,-329.18 329.37,-329.33l16401.89 0c181.77,0.15 329.15,147.53 329.3,329.3l0 8993.24c-0.11,181.76 -147.49,329.14 -329.26,329.29l-0.04 0z"/>
  <path class="fil9" d="M75600.84 55550.67c51.15,-7.25 103.04,-11.08 154.67,-11.08 598.75,0 1084.31,485.56 1084.31,1084.31 0,12.04 -0.26,24.35 -0.67,36.28l3596.08 1384.2 -1629.26 1164.04 -3165.13 -1492.93c-557.12,-55.75 -981.68,-524.77 -981.68,-1084.82 0,-544.63 402.08,-1005.92 941.65,-1080.08l0.03 0.08z"/>
  <path class="fil6" d="M89255.22 54871.19l608.38 1106.09c-146.94,701.11 -526.94,1333.16 -1077.96,1791.14 -931.42,785.57 -5801.68,3711.32 -5801.68,3711.32l-6148.45 -3086.66 1075.57 -1429.29 4827.11 1617.71 0 0c1786.68,-1688.48 3952.47,-2941.25 6309.36,-3647.72l207.67 -62.59z"/>
  <ellipse class="fil4" cx="88123.97" cy="71610.59" rx="4798.45" ry="1563.51"/>
  <polygon class="fil9" points="77359.09,91355.73 76084.92,91003.54 76837.07,85921.14 78717.68,86441.09 "/>
  <path class="fil10" d="M77342.63 92680.72l-4108.52 -1135.72 14.34 -51.96c198.68,-719.03 853.19,-1217.16 1599.24,-1217.16 149.28,0 298.18,20.26 442,59.96l0.11 0.04 2509.32 693.68 -456.49 1651.16z"/>
  <polygon class="fil9" points="73664.77,91372.23 72455.38,90838.2 73939.64,85919.66 75724.47,86707.71 "/>
  <path class="fil10" d="M73455.57 92680.72l-3899.36 -1721.86 21.78 -49.33c265.33,-601.09 860.65,-989 1517.79,-989 230.72,0 459.21,48.43 670.08,141.4l0.11 0.04 2381.61 1051.63 -692.01 1567.12z"/>
  <path class="fil10" d="M91858.4 67787.91c0,0 640.97,1985.92 -3291.8,4497.44l-5065 5047.08 -5262.82 12589.1 -3124.47 -1400.78 612.8 -1635.73 411.18 -1097.62 210.39 -561.54 225.52 -601.94 3344.96 -8928.64 2809.77 -4919.66 81.51 -2669.49 691.12 -1881.73 5014.11 -1779.18 3342.73 3342.69z"/>
  <path class="fil10" d="M89301.35 67886.23c0,0 640.97,1985.92 -3291.8,4497.44l-5065 5047.08 -5262.82 12589.1 -3124.47 -1400.78 612.8 -1635.73 411.18 -1097.62 210.39 -561.54 225.52 -601.94 3344.95 -8928.64 940.8 -1647.22c1236.96,-2171.18 2753.49,-4185.8 4489.78,-5980.7l921.72 -953.69 98.35 -1475.23 2145.91 -1193.26 3342.69 3342.73z"/>
  <path class="fil6" d="M86271.41 58164l1573.55 -3343.81 2746.03 -374.57c0,0 2144.27,2731.79 1581.28,6570.49 -211.09,1439.51 -383.16,2872.63 -393.38,4130.6 -2.71,334.72 290.08,484.18 295.06,786.79 4.87,297.26 -554.99,781.48 -393.37,983.46 230.9,278.26 368.77,622.39 393.37,983.39 -194.88,463.82 -6093.21,-2048.96 -8572.39,-1676.06l2769.85 -8060.29z"/>
  <circle class="fil9" transform="matrix(1.89935 -3.19517 3.19517 1.89935 88036.7 51493.1)" r="668.19"/>
  <path class="fil10" d="M89624.62 50601.27c-4.75,65.35 -11.33,151.92 -18.92,249.83 -0.37,12.15 -0.52,24.98 -0.52,37.32 0,255.32 75.57,505.41 216.82,717.95 138.95,234.99 -26.87,1654.28 -26.87,1654.28 4068.48,-2835.98 853.77,-5685.19 -403.71,-5431.91 26.24,-360.67 -999.34,-217.78 -999.34,-217.78 -390.78,-608.56 -1247.23,199.23 -1247.23,199.23l165.26 -278.03c-664.91,169.12 -1322.12,2224.15 -1322.12,2224.15 225.47,886.67 3662.91,484.29 3636.63,844.96z"/>
  <path class="fil5" d="M73841.77 59479.39c1394.17,-1857.01 2504.9,-3925.38 3276.01,-6116.18 22.01,-61.04 32.75,-125.19 32.75,-189.54 0,-215.44 -118.43,-413.6 -308.04,-515.7l-4784.17 -2563.41c-84.38,-45.57 -178.83,-69.43 -274.65,-69.43 -80.03,0 -159.21,16.65 -232.47,48.84 -166.12,72.15 -289.93,217.15 -335.09,392.6 -555.85,2111.81 -1605.11,4069.19 -3055.7,5701.73 -96.46,108.43 -150.21,248.48 -150.21,393.45 0,34.64 3.09,69.47 9.18,103.56 30.63,175.56 140.73,327.21 298.04,410.85l4784.17 2563.48c84.72,45.2 179.46,68.88 275.55,68.88 182.06,0 353.79,-84.75 464.63,-229.13z"/>
  <path class="fil7" d="M73515.3 59234.07c-33.52,41.81 -84.3,66.2 -137.94,66.2 -28.88,0 -57.39,-7.1 -82.85,-20.63l-4784.17 -2563.48c-47.06,-24.53 -80,-69.73 -88.84,-122.07 -1.9,-10.67 -2.9,-21.52 -2.9,-32.34 0,-44.86 16.84,-88.17 47.17,-121.25 1492.96,-1681.34 2573.11,-3696.3 3145.57,-5870.6 13.27,-54.31 51.48,-99.39 103.04,-121.62 21.78,-9.7 45.42,-14.76 69.29,-14.76 28.62,0 56.79,7.25 81.85,21.04l4784.06 2563.44c57.13,30.82 92.74,90.51 92.74,155.45 0,18.25 -2.86,36.39 -8.36,53.75 -758.55,2151.7 -1849.4,4183.01 -3219.1,6006.53l0.44 0.34z"/>
  <path class="fil11" d="M71841.54 52890.06l3299.8 1934.11c328.33,192.43 625.62,-317.4 297.81,-509.54l-3299.76 -1934.11c-328.33,-192.43 -625.62,317.41 -297.81,509.54l-0.04 0z"/>
  <path class="fil11" d="M71251.46 53971.88l3299.79 1934.1c328.33,192.44 625.62,-317.4 297.81,-509.53l-3299.75 -1934.07c-328.33,-192.43 -625.63,317.4 -297.82,509.54l-0.03 -0.04z"/>
  <path class="fil11" d="M70563.05 55152.05l3299.8 1934.11c328.33,192.43 625.62,-317.41 297.81,-509.54l-3299.79 -1934.07c-328.33,-192.43 -625.63,317.4 -297.82,509.54l0 -0.04z"/>
  <path class="fil11" d="M69874.61 56135.55l3299.8 1934.11c328.33,192.43 625.62,-317.4 297.81,-509.54l-3299.79 -1934.11c-328.33,-192.43 -625.62,317.41 -297.82,509.54z"/>
  <path class="fil11" d="M84917.32 67512.22l1238.83 2785.76c25.27,56.46 38.43,117.72 38.43,179.65 0,84.22 -24.31,166.82 -69.8,237.63 -80.67,127.49 -221.21,204.88 -372.2,204.88 -24.83,0 -49.8,-2.15 -74.26,-6.28 -29.22,-4.5 -57.91,-12.19 -85.38,-22.86 -109.43,-42.19 -197.86,-126.27 -245.52,-233.43l-1238.82 -2785.73c-25.13,-56.53 -38.22,-117.86 -38.22,-179.79 0,-244.36 198.2,-442.56 442.56,-442.56 174.85,0 333.35,103.04 404.34,262.76l0.04 -0.03z"/>
  <path class="fil8" d="M86056.27 70073.32l248.19 562.24 126.9 797.09c1.97,12.49 3.01,25.24 3.01,37.99 0,133.11 -107.94,241.05 -241.05,241.05 -72.93,0 -141.96,-33.04 -187.71,-89.8l-513.56 -639 -244.58 -549.98 808.8 -359.59z"/>
  <path class="fil8" d="M83833.27 66737.17l177.53 1115.27c18.62,117.09 119.62,203.29 238.19,203.29 33.75,0 67.2,-7.14 98.02,-20.82l176 -78.28 339.67 763.82c15.83,35.46 51,58.29 89.8,58.29 54.31,0 98.36,-44.05 98.36,-98.36 0,-13.71 -2.86,-27.28 -8.4,-39.81l-339.67 -763.82 176 -78.28c87.02,-38.77 143.19,-125.27 143.19,-220.61 0,-33.49 -6.99,-66.65 -20.45,-97.31 -8.62,-19.29 -19.77,-37.51 -33.12,-53.94l-709.25 -878.83c-45.76,-56.68 -114.79,-89.69 -187.68,-89.69 -133.18,0 -241.2,108.02 -241.2,241.2 0,12.68 1.04,25.43 3.01,37.92l0 -0.04z"/>
  <path class="fil9" d="M84347.2 68750.19c92.4,-516.86 542.21,-893.36 1067.35,-893.36 128.02,0 255.37,22.89 375.43,67.13l2445.54 -2977.79 592.2 1912.81 -2413.09 2534.52c-175.26,392.64 -565.36,645.77 -995.54,645.77 -601.98,0 -1090.18,-488.2 -1090.18,-1090.18 0,-66.68 6.24,-133.48 18.36,-198.98l-0.07 0.08z"/>
  <path class="fil6" d="M87425.94 68556.68l-1077.1 -1555.78 3058.52 -4078.01 -1575.59 -3376.25 114.71 -4016.04 1301.98 -240.5 16.17 8.11c632.42,364.01 1122.7,934.39 1386.8,1614.92 324.8,811.99 1049.85,3860.18 1453.19,5604.82 35.35,152.07 53.49,307.96 53.49,464.16 0,541.54 -216.52,1061.44 -600.61,1442.82l-4131.56 4131.75z"/>
  <path class="fil12" d="M57099.18 61039.15c-6.51,56.39 -10.04,113.49 -10.04,170.39 0,19.07 0.37,38.51 1.08,57.43l-5514.62 4011.99 -1514.97 -670.56 -1310.71 2154.16 2566.68 1447.58c164.77,93.03 351.18,141.91 540.42,141.91 287.29,0 563.14,-112.4 768.66,-313.05l5550.29 -5421.24c116.2,29.36 235.67,44.34 355.51,44.34 797.05,0 1443.45,-646.4 1443.45,-1443.45 0,-797.05 -646.4,-1443.45 -1443.45,-1443.45 -727.62,0 -1341.76,542.06 -1432.19,1263.88l-0.11 0.07z"/>
  <path class="fil11" d="M51397.29 65425.56l-1608.19 2679.79c-111.7,186.19 -313.27,300.34 -530.54,300.34 -143.18,0 -282.09,-49.77 -392.71,-140.58l-2407.84 -1977.52c-512.37,-311.49 -825.6,-868.53 -825.6,-1468.36 0,-948.93 769.58,-1718.51 1718.51,-1718.51 311.34,0 617.45,84.97 884.33,245.06l2868.77 1189.91c230.94,95.79 381.52,321.38 381.52,571.43 0,112.11 -30.59,222.36 -88.25,318.44z"/>
  <rect class="fil4" x="44506.76" y="83494.07" width="3152.27" height="5223.79"/>
  <rect class="fil4" transform="matrix(2.08713 -3.0758 3.0758 2.08713 47096.5 86854.4)" width="193.85" height="2459.69"/>
  <rect class="fil4" transform="matrix(3.07579 -2.08714 2.08714 3.07579 37099.3 91391.9)" width="2459.69" height="193.85"/>
  <circle class="fil4" cx="54864.28" cy="91690.01" r="990.71"/>
  <circle class="fil4" cx="46037.87" cy="91690.01" r="990.71"/>
  <circle class="fil4" cx="37301.55" cy="91690.01" r="990.71"/>
  <rect class="fil4" x="45677.61" y="86556.28" width="720.52" height="5133.73"/>
  <rect class="fil4" x="45407.41" y="78900.75" width="1350.97" height="6935.02"/>
  <path class="fil8" d="M42210.1 79981.52l0 -1621.17c0.63,-621.46 504.51,-1125.34 1125.9,-1125.9l6034.3 0.07c621.38,0.49 1125.27,504.37 1125.83,1125.8l0 1621.16c-0.56,621.35 -504.45,1125.23 -1125.87,1125.79l-6034.34 0.08c-621.31,-0.64 -1125.19,-504.52 -1125.75,-1125.94l-0.07 0.11z"/>
  <polygon class="fil13" points="53108.93,91063.05 54777.68,91062.94 55571.75,86734.55 53108.75,86734.66 "/>
  <path class="fil10" d="M52683.33 92680.72l5381.1 -0.19 0 -68.06c0.03,-0.11 0.03,-0.11 0.03,-0.11 0,-1156.53 -937.89,-2094.42 -2094.42,-2094.42l-0.26 0.07 -3286.56 0.15 0.11 2162.56z"/>
  <path class="fil10" d="M55605.02 88378.95l3327.01 -7460.69c153.77,-347.51 233.21,-724.68 233.21,-1104.9 0,-1004.1 -550.8,-1927.72 -1433.72,-2405.06l-7216.44 -3869.74 -3293.03 -280.08 -3037.59 -276.1 -21.9 37.09c-28.02,47.32 -681.11,1175.42 -239.64,2412.38 334.88,938.27 1205.93,1671.13 2588.95,2178.29 3228.13,1183.66 6957.25,2195.3 8410.66,2575.22 129.99,33.16 239.64,120.4 301.12,239.49 35.61,68.14 54.34,144.04 54.34,221.02 0,54.49 -9.4,108.73 -27.65,159.98l-3090.93 6944.39c-24.69,67.43 -37.4,138.95 -37.4,210.8 0,316.32 241.02,580.75 555.93,609.93l2309.56 168.16c19.59,1.9 39.15,2.87 58.55,2.87 241.65,-0.15 460.69,-142.44 558.97,-363.13l0 0.08z"/>
  <polygon class="fil13" points="52019.94,91063.05 53688.68,91062.94 54482.76,86734.55 52019.72,86734.66 "/>
  <path class="fil10" d="M51594.34 92680.72l5381.09 -0.19 0 -68.06c0,-0.11 0,-0.11 0,-0.11 0,-1156.53 -937.89,-2094.42 -2094.42,-2094.42l-0.22 0.07 -3286.57 0.15 0.12 2162.56z"/>
  <path class="fil10" d="M54379.87 88787.31l3327.01 -7460.69c153.78,-347.48 233.21,-724.65 233.21,-1104.87 0,-1004.09 -550.8,-1927.71 -1433.71,-2405.06l-7216.45 -3869.73 -3293.03 -280.08 -2379.18 -206.38 0.33 -32.63c-28.03,47.32 -681.12,1175.41 -239.64,2412.38 334.87,938.26 525.3,1671.12 1908.31,2178.28 3228.13,1183.67 6957.25,2195.31 8410.66,2575.23 129.99,33.15 239.64,120.39 301.12,239.49 35.69,68.1 54.42,144.04 54.42,221.02 0,54.49 -9.4,108.72 -27.69,160.02l-3090.94 6944.38c-24.68,67.36 -37.39,138.87 -37.39,210.73 0,316.32 241.02,580.75 555.93,609.93l2309.56 168.16c19.59,1.9 39.11,2.86 58.55,2.86 241.64,-0.15 460.69,-142.44 558.97,-363.12l-0.04 0.08z"/>
  <circle class="fil13" transform="matrix(0.859992 -3.61622 3.61622 0.859992 49040.3 55878.6)" r="899.46"/>
  <path class="fil5" d="M60564.86 68724.06c1394.21,-1857.02 2504.9,-3925.38 3276.01,-6116.19 21.97,-61 32.71,-125.15 32.71,-189.5 0,-215.44 -118.42,-413.59 -308.03,-515.7l-4784.14 -2563.45c-84.34,-45.53 -178.79,-69.39 -274.62,-69.39 -80.02,0 -159.2,16.65 -232.46,48.84 -166.12,72.11 -289.93,217.11 -335.1,392.56 -555.85,2111.82 -1605.1,4069.19 -3055.69,5701.73 -96.5,108.43 -150.25,248.49 -150.25,393.45 0,34.65 3.09,69.48 9.19,103.56 30.62,175.56 140.72,327.22 298.03,410.85l4784.17 2563.48c84.75,45.2 179.5,68.88 275.59,68.88 182.06,0 353.79,-84.75 464.63,-229.08l-0.04 -0.04z"/>
  <path class="fil7" d="M60238.39 68478.77c-33.49,41.78 -84.26,66.16 -137.9,66.16 -28.88,0 -57.39,-7.1 -82.85,-20.63l-4784.25 -2563.44c-47.02,-24.57 -79.95,-69.77 -88.8,-122.11 -1.9,-10.63 -2.9,-21.48 -2.9,-32.3 0,-44.86 16.84,-88.17 47.17,-121.25 1493,-1681.34 2573.14,-3696.3 3145.61,-5870.6 13.23,-54.31 51.45,-99.39 103,-121.62 21.78,-9.74 45.42,-14.8 69.29,-14.8 28.62,0 56.79,7.25 81.85,21.04l4784.06 2563.45c57.09,30.85 92.7,90.54 92.7,155.48 0,18.25 -2.86,36.39 -8.36,53.75 -758.54,2151.7 -1849.36,4183.01 -3219.06,6006.53l0.44 0.34z"/>
  <path class="fil5" d="M58564.63 62134.72l3299.8 1934.11c328.33,192.43 625.62,-317.4 297.81,-509.54l-3299.8 -1934.07c-328.33,-192.43 -625.62,317.41 -297.81,509.54l0 -0.04z"/>
  <path class="fil5" d="M57974.55 63216.58l3299.79 1934.1c328.33,192.44 625.62,-317.4 297.81,-509.53l-3299.79 -1934.11c-328.33,-192.43 -625.62,317.4 -297.81,509.54z"/>
  <path class="fil5" d="M57510.92 64294.2l3000.98 1781.52c298.59,177.26 617.92,-189.2 319.81,-366.17l-3000.98 -1781.52c-298.59,-177.27 -617.92,189.2 -319.81,366.17z"/>
  <path class="fil5" d="M56597.67 65380.21l3299.79 1934.11c328.33,192.43 625.62,-317.4 297.82,-509.54l-3299.76 -1934.1c-328.33,-192.44 -625.62,317.4 -297.82,509.53l-0.03 0z"/>
  <path class="fil11" d="M50968.01 73809.46l-6616.25 -39.58 -1.78 -47.06c-126.16,-3319.61 279.56,-6326.72 1240.31,-9193 13.61,-107.27 28.25,-221.94 42.67,-334.5 164.11,-1282.35 294.43,-2300.5 1513.86,-2679.67 -101.44,-135.12 -161.43,-297.04 -172.25,-465.64 -1.3,-19.22 -2.01,-38.73 -2.01,-57.99 0,-206.82 75.79,-406.83 212.95,-561.65 143.89,-163.92 347.88,-263.58 565.78,-275.99l2354.95 -80.18c1.15,0 2.49,0 3.72,0 122.48,0 241.5,40.85 338.18,115.94 238.52,177.19 379.47,457.23 379.47,754.6 0,150.69 -36.39,299.45 -105.71,433.15 -27.73,55.24 -38.36,80.4 -42.41,91.33 83.71,438.61 332.16,959.67 594.99,1511.03 376.39,789.47 803,1684.2 912.65,2641.46 20.82,181.58 31.45,366.8 31.45,550.24 0,335.06 -35.39,671.27 -104.41,998.63 -31.67,177.01 -47.69,357.77 -47.69,537.75 0,98.02 4.83,196.41 14.16,293.65 21.52,411.26 41.78,799.54 -190.65,1175.08 -59.25,101.81 -127.05,210.35 -206.59,330.59l-326.99 781.71 -388.4 3520.1z"/>
  <path class="fil8" d="M41039.25 78455.03l0 -13519.01c0.9,-917.11 744.57,-1660.79 1661.72,-1661.6l459.43 0c917.15,0.81 1660.83,744.49 1661.65,1661.64l-0.04 13518.97c-0.78,917.04 -744.46,1660.71 -1661.61,1661.53l-459.54 0.04c-917.04,-0.86 -1660.71,-744.53 -1661.53,-1661.69l-0.08 0.12z"/>
  <path class="fil12" d="M58781.56 66285.32c-47.39,59.07 -90.36,122.7 -127.79,188.61l-6801.51 496.63 -932.83 -1369.14 -2250.32 1137.76 1415.83 2584.29c192.99,352.57 562.99,571.62 964.84,571.62 79.77,0 159.58,-8.74 237.45,-25.91l7575.66 -1674.73c271.94,282.76 648,442.78 1040.45,442.78 797.05,0 1443.45,-646.4 1443.45,-1443.45 0,-797.06 -646.4,-1443.46 -1443.45,-1443.46 -435.46,0 -847.65,196.67 -1121.67,535l-0.11 0z"/>
  <path class="fil11" d="M51623.37 67001.08l-2780.41 1427.17c-87.28,44.79 -184.3,68.29 -282.5,68.29 -265.1,0 -500.8,-168.95 -585.96,-419.88l-1001.23 -2950.58c-121.85,-240.53 -185.6,-506.86 -185.6,-776.54 0,-644.17 360.67,-1234.47 933.77,-1528.27 -1232.51,632.64 1334.43,-1164.38 2314.14,744.27l1808.43 2524.93c75.16,104.9 115.64,231.02 115.64,360.11 0,232.02 -129.8,444.6 -336.21,550.54l-0.07 -0.04z"/>
  <path class="fil10" d="M47529.9 59130.51c-201.24,0 -423.3,-97.02 -673.61,-293.5 -1033.05,-811.03 -1636.48,-2052.38 -1636.48,-3365.81 0,-566.86 113.37,-1130.07 331.75,-1652.5 182.03,-434.79 522.44,-1025.73 1110.59,-1372.05 422.78,-248.86 919.42,-338.74 1351.75,-403.49 374.27,-56.09 753.27,-100.73 1126.39,-132.55 445.86,-38.14 960.86,-63.86 1430.59,114.56 344.12,130.81 637.07,361.78 920.34,585.18 98.73,77.8 200.84,158.39 303.09,232.91 247.97,193.22 533.81,332.2 838.76,407.39 130.32,27.03 242.54,109.17 307.55,225.22 39.33,69.92 60.03,148.95 60.03,229.2 0,53.52 -9.25,106.79 -27.21,157.19 -44.19,123.89 -84.04,235.59 -3.38,356.62 59.62,84.97 156.97,135.63 260.83,135.63 1.75,0 3.57,-0.03 5.28,-0.03 0.89,0 1.82,-0.04 2.71,-0.04 54.87,0 106.2,27.32 136.83,72.82 19.33,28.06 29.7,61.33 29.7,95.41 0,20.82 -3.87,41.56 -11.45,60.96l-12.94 33.35c70.22,6.5 132.81,47.28 167.23,108.8 19.63,33.6 30.04,71.96 30.04,110.91 0,61.22 -25.58,119.69 -70.48,161.29 -298.15,283.8 -670.45,478.83 -1073.68,561.94 -135.93,26.47 -274.5,40.11 -413.11,40.11 -141.73,0 -284.02,-14.42 -422.86,-42.19l-44.38 -8.66 5.47 -49.17c-1115.65,-397.92 -2122.75,277.36 -2696.85,1049.36l-82.93 -52.33c16.35,-32.64 24.83,-68.84 24.83,-105.46 0,-27.58 -4.83,-55.01 -14.16,-80.92 -23.35,-73.15 -74.9,-134.07 -143.18,-169.2 -45.24,-18.66 -93.86,-28.32 -142.82,-28.32 -99.24,0 -194.58,39.51 -264.76,109.65 -98.58,103.3 -153.67,240.83 -153.67,383.68 0,12.64 0.49,25.31 1.3,37.87 14.95,163 56.76,323.06 123.04,472.59 26.99,71.67 54.9,145.79 77.61,220.5 49.96,167.34 75.68,341.71 75.68,516.49 0,264.5 -58.47,526.34 -170.83,765.57 -86.91,182.95 -244.03,416.23 -499.17,488.57 -52.75,14.83 -107.46,22.41 -162.29,22.41 -0.37,0 -0.74,0 -1.08,0l-0.07 0.04z"/>
  <path class="fil4" d="M101873.99 92877.39l-79395.47 0c-64.45,-0.22 -116.68,-52.6 -116.68,-117.13 0,-64.52 52.23,-116.9 116.76,-117.08l79395.39 0.03c64.64,-0.03 117.08,52.42 117.08,117.05 0,64.64 -52.44,117.09 -117.08,117.09l0 0.04z"/>
 </g>
</svg>
