<?xml version="1.0" encoding="UTF-8"?>
<!DOCTYPE svg PUBLIC "-//W3C//DTD SVG 1.1//EN" "http://www.w3.org/Graphics/SVG/1.1/DTD/svg11.dtd">
<!-- Creator: CorelDRAW 2020 (64 Bit) -->
<svg xmlns="http://www.w3.org/2000/svg" xml:space="preserve" width="1118.66mm" height="1032.93mm" version="1.1" style="shape-rendering:geometricPrecision; text-rendering:geometricPrecision; image-rendering:optimizeQuality; fill-rule:evenodd; clip-rule:evenodd"
viewBox="0 0 111865.9 103293.4"
 xmlns:xlink="http://www.w3.org/1999/xlink"
 xmlns:xodm="http://www.corel.com/coreldraw/odm/2003">
 <defs>
  <style type="text/css">
   <![CDATA[
    .str0 {stroke:black;stroke-width:28;stroke-linecap:round;stroke-linejoin:round;stroke-miterlimit:22.9256;stroke-opacity:0.090196}
    .str1 {stroke:black;stroke-width:28;stroke-linecap:round;stroke-linejoin:round;stroke-miterlimit:22.9256;stroke-opacity:0.301961}
    .str2 {stroke:#263238;stroke-width:28;stroke-linecap:round;stroke-linejoin:round;stroke-miterlimit:22.9256}
    .fil8 {fill:none;fill-rule:nonzero}
    .fil2 {fill:none;fill-rule:nonzero}
    .fil3 {fill:none;fill-rule:nonzero}
    .fil0 {fill:#0E53AD;fill-rule:nonzero}
    .fil7 {fill:#263238;fill-rule:nonzero}
    .fil9 {fill:#858585;fill-rule:nonzero}
    .fil10 {fill:#C2C2C2;fill-rule:nonzero}
    .fil6 {fill:white;fill-rule:nonzero}
    .fil4 {fill:black;fill-rule:nonzero;fill-opacity:0.090196}
    .fil5 {fill:black;fill-rule:nonzero;fill-opacity:0.301961}
    .fil1 {fill:white;fill-rule:nonzero;fill-opacity:0.701961}
   ]]>
  </style>
 </defs>
 <g id="Camada_x0020_1">
  <metadata id="CorelCorpID_0Corel-Layer"/>
  <path class="fil0" d="M103520.45 45478.5c0,0 -9937.88,-18620.88 -24981.32,-25758.88 -15043.44,-7138 -33207.22,-5584.57 -42052.14,2327.61 -8844.91,7912.19 -6517.3,13344.96 -20481.27,27465.79 -13963.97,14120.83 -11327.7,32584.84 11638.04,35533.15 22965.75,2948.3 23276.09,-2793.14 42517.66,-1551.74 19241.57,1241.39 35059.19,2793.13 38938.54,-8224.22 3879.35,-11017.35 -5579.51,-29791.71 -5579.51,-29791.71z"/>
  <path class="fil1" d="M103520.45 45478.5c0,0 -9937.88,-18620.88 -24981.32,-25758.88 -15043.44,-7138 -33207.22,-5584.57 -42052.14,2327.61 -8844.91,7912.19 -6517.3,13344.96 -20481.27,27465.79 -13963.97,14120.83 -11327.7,32584.84 11638.04,35533.15 22965.75,2948.3 23276.09,-2793.14 42517.66,-1551.74 19241.57,1241.39 35059.19,2793.13 38938.54,-8224.22 3879.35,-11017.35 -5579.51,-29791.71 -5579.51,-29791.71z"/>
  <polygon class="fil2 str0" points="95417.67,64927.53 109069.6,64927.53 109069.6,52402.29 95417.67,52402.29 "/>
  <polygon class="fil2 str0" points="96379.07,58776.23 97650.82,58776.23 97650.82,57504.48 96379.07,57504.48 "/>
  <polygon class="fil3 str1" points="98121.41,58776.23 99393.16,58776.23 99393.16,57504.48 98121.41,57504.48 "/>
  <polygon class="fil3 str1" points="99865.43,58776.23 101137.18,58776.23 101137.18,57504.48 99865.43,57504.48 "/>
  <polygon class="fil3 str1" points="101607.76,58776.23 102879.51,58776.23 102879.51,57504.48 101607.76,57504.48 "/>
  <polygon class="fil3 str1" points="103350.09,58776.23 104621.84,58776.23 104621.84,57504.48 103350.09,57504.48 "/>
  <polygon class="fil3 str1" points="105094.11,58776.23 106365.86,58776.23 106365.86,57504.48 105094.11,57504.48 "/>
  <polygon class="fil3 str1" points="106836.45,58776.23 108108.2,58776.23 108108.2,57504.48 106836.45,57504.48 "/>
  <polygon class="fil2 str0" points="96379.07,60893 97650.82,60893 97650.82,59621.25 96379.07,59621.25 "/>
  <polygon class="fil3 str1" points="98121.41,60893 99393.16,60893 99393.16,59621.25 98121.41,59621.25 "/>
  <polygon class="fil2 str0" points="99865.43,60893 101137.18,60893 101137.18,59621.25 99865.43,59621.25 "/>
  <polygon class="fil2 str0" points="101607.76,60893 102879.51,60893 102879.51,59621.25 101607.76,59621.25 "/>
  <polygon class="fil3 str1" points="103350.09,60893 104621.84,60893 104621.84,59621.25 103350.09,59621.25 "/>
  <polygon class="fil2 str0" points="105094.11,60893 106365.86,60893 106365.86,59621.25 105094.11,59621.25 "/>
  <polygon class="fil3 str1" points="106836.45,60893 108108.2,60893 108108.2,59621.25 106836.45,59621.25 "/>
  <polygon class="fil2 str0" points="96379.07,63008.09 97650.82,63008.09 97650.82,61736.34 96379.07,61736.34 "/>
  <polygon class="fil2 str0" points="98121.41,63008.09 99393.16,63008.09 99393.16,61736.34 98121.41,61736.34 "/>
  <polygon class="fil2 str0" points="99865.43,63008.09 101137.18,63008.09 101137.18,61736.34 99865.43,61736.34 "/>
  <polygon class="fil3 str1" points="101607.76,63008.09 102879.51,63008.09 102879.51,61736.34 101607.76,61736.34 "/>
  <polygon class="fil2 str0" points="103350.09,63008.09 104621.84,63008.09 104621.84,61736.34 103350.09,61736.34 "/>
  <polygon class="fil2 str0" points="105094.11,63008.09 106365.86,63008.09 106365.86,61736.34 105094.11,61736.34 "/>
  <polygon class="fil3 str1" points="106836.45,63008.09 108108.2,63008.09 108108.2,61736.34 106836.45,61736.34 "/>
  <polygon class="fil4" points="97757.08,53012.87 98590.3,53012.87 98590.3,50833.68 97757.08,50833.68 "/>
  <polygon class="fil5" points="101827.03,53012.87 102660.24,53012.87 102660.24,50833.68 101827.03,50833.68 "/>
  <polygon class="fil5" points="105896.97,53012.87 106730.19,53012.87 106730.19,50833.68 105896.97,50833.68 "/>
  <polygon class="fil3 str1" points="96535.93,56602.11 108200.97,56602.11 108200.97,54487.02 96535.93,54487.02 "/>
  <path class="fil3 str1" d="M93910.65 22088.88c-2726.29,-2726.29 -7146.54,-2726.29 -9872.82,0 -2726.29,2726.29 -2726.29,7146.54 0,9872.83 2726.28,2726.28 7146.53,2726.28 9872.82,0 2726.29,-2726.29 2726.29,-7146.54 0,-9872.83z"/>
  <path class="fil2 str0" d="M93161.66 22837.87c-2312.65,-2312.65 -6062.2,-2312.65 -8374.85,0 -2312.64,2312.65 -2312.64,6062.2 0,8374.85 2312.65,2312.65 6062.2,2312.65 8374.85,0 2312.65,-2312.65 2312.65,-6062.2 0,-8374.85z"/>
  <path class="fil2 str0" d="M89544.67 27026.29c0,315.71 -256.07,571.78 -571.78,571.78 -315.71,0 -571.78,-256.07 -571.78,-571.78 0,-315.71 256.07,-571.78 571.78,-571.78 0.54,0 1.14,0 1.69,0 0,0 0,0 0,0 314.8,0 570.09,255.29 570.09,570.1 0,0.54 0,1.08 0,1.68z"/>
  <line class="fil3 str1" x1="88544.47" y1="27473.26" x2="86751.54" y2= "29023.31" />
  <line class="fil3 str1" x1="89544.67" y1="27026.29" x2="94162.78" y2= "27026.29" />
  <path class="fil2 str0" d="M36831.07 72873.44l-19228.07 0 0 -55756.35 19228.07 0 0 55756.35zm20009.01 -55756.35l-19228.08 0 0 55756.35 19228.08 0 0 -55756.35zm20010.69 0l-19228.08 0 0 55756.35 19228.08 0 0 -55756.35z"/>
  <path class="fil2 str0" d="M17596.25 32005.35c674.67,168.67 2329.3,-711.77 5677.34,-8522.76 934.12,-2234.9 2102.56,-4370.65 3472.2,-6365.14"/>
  <path class="fil3 str1" d="M57615.95 48617.4c1135.13,1437.04 2374.83,3160.82 3734.29,5274.22 3820.14,5916.07 6895.48,12306.45 9147.25,18978.33"/>
  <path class="fil2 str0" d="M45537.68 17117.09c-831.53,3319.37 -1273.44,7962.78 -52.29,13763.25 2177.5,10351.11 5075.2,9207.55 11356.37,16775.65"/>
  <path class="fil3 str1" d="M17594.56 53682.48c1180.67,-1855.34 2378.21,-4385.35 3430.7,-7856.53 3965.37,-13088.58 13493.38,-18509.55 13493.38,-6345.26 0,12164.28 -5925.28,18566.9 -6082.14,26969.9 -3.37,170.06 -7.71,351.85 -7.71,525.04 0,2008.77 342.03,4004.52 1008.69,5898.54"/>
  <path class="fil3 str1" d="M48767.66 72873.44c-1976.78,-8986.59 -2449.05,-18511.23 155.17,-19379.87 2720.61,-905.74 5378.8,11499.74 6780.43,19379.87"/>
  <path class="fil3 str1" d="M67299.14 17117.09c-4321.26,8919.12 -11455.89,25015.05 -6874.88,25397.92 3649.96,303.6 10887.47,-7927.36 16426.51,-15038.38"/>
  <path class="fil3 str1" d="M52230.6 20283.28c-2204.31,-514.59 -4408.47,855.25 -4923.05,3059.56 -514.58,2204.31 855.25,4408.46 3059.56,4923.04 2204.31,514.59 4408.47,-855.25 4923.05,-3059.56 514.58,-2204.31 -855.25,-4408.46 -3059.56,-4923.04z"/>
  <path class="fil2 str0" d="M69810.59 32604.12c0,0.42 0,1.2 0,1.69 0,511.3 -414.68,925.98 -925.98,925.98 -511.3,0 -925.98,-414.68 -925.98,-925.98 0,-511.31 414.68,-925.99 925.98,-925.99 0,0 0,0 0,0 510.64,0 925.08,413.66 925.98,924.3z"/>
  <path class="fil3 str1" d="M25520.24 55674.44c0,-839.3 -680.39,-1519.7 -1519.69,-1519.7 -839.3,0 -1519.69,680.4 -1519.69,1519.7 0,839.3 680.39,1519.69 1519.69,1519.69 839.3,0 1519.69,-680.39 1519.69,-1519.69z"/>
  <path class="fil3 str1" d="M29752.1 21962.9c0,-547.75 -444.01,-991.77 -991.76,-991.77 -547.75,0 -991.76,444.02 -991.76,991.77 0,547.75 444.01,991.76 991.76,991.76 547.75,0 991.76,-444.01 991.76,-991.76z"/>
  <path class="fil2 str0" d="M43645.52 43889.66c-337.43,-809.04 -1266.78,-1191.33 -2075.82,-853.9 -809.04,337.44 -1191.32,1266.78 -853.89,2075.82 337.43,809.04 1266.78,1191.33 2075.82,853.9 809.04,-337.44 1191.32,-1266.78 853.89,-2075.82z"/>
  <path class="fil3 str1" d="M73249.72 54881.7c0,-2008.35 -1628.12,-3636.47 -3636.47,-3636.47 -2008.34,0 -3636.46,1628.12 -3636.46,3636.47 0,2008.35 1628.12,3636.47 3636.46,3636.47 2008.35,0 3636.47,-1628.12 3636.47,-3636.47z"/>
  <path class="fil6 str2" d="M84036 38644.1l8929.25 0c0.96,0 2.41,0 3.37,0 1084.11,0 1963.29,879.18 1963.29,1963.28 0,0 0,0 0,0l0 6775.37c0,1084.11 -879.18,1963.23 -1963.29,1963.23l-7382.57 0.06 -3373.35 2948.3 1620.9 -2961.79c-1000.08,-102.77 -1760.89,-945.75 -1760.89,-1951.3 0,0 0,-0.25 0,-0.25l0 -6773.62c0,-1084.1 879.18,-1963.28 1963.29,-1963.28z"/>
  <path class="fil7" d="M87384.04 45790.53l0 -1318.98c309.39,-246.55 597.33,-522.99 855.33,-823.21 246.19,-282.4 450.58,-600.64 603.89,-942.55 144.93,-329.45 220.71,-686.36 220.71,-1046.46 0,-3.14 0,-6.33 0,-9.46 1.02,-19.22 1.75,-38.67 1.75,-57.89 0,-194.51 -59.58,-384.62 -170.42,-544.37 -108.61,-128.19 -268.3,-202.28 -436.36,-202.28 -14.16,0 -28.56,0.54 -42.65,1.62 -8.56,-0.42 -17.41,-0.66 -26.09,-0.66 -155.35,0 -304.62,60.78 -415.76,169.21 -108.49,112.52 -169.21,262.94 -169.21,419.2 0,8.13 0.24,16.44 0.54,24.45 1.03,95.78 15.3,191.32 42.11,283.31 25.3,82.64 50.6,168.66 77.59,268.18l-1410.06 318.78c-47.11,-146.32 -85.84,-297.4 -114.52,-448.48 -27.04,-146.5 -40.66,-296.67 -40.66,-445.88 0,-0.3 0,-0.9 0,-1.21 -1.56,-32.83 -2.71,-66.56 -2.71,-99.63 0,-490.64 196.08,-961.52 544.2,-1307.11 359.8,-337.28 876.46,-505.94 1549.99,-505.94 673.52,0 1190.19,-168.67 1585.47,546.48 371.07,362.09 556.6,880.44 556.6,1555.11 0.06,7.35 0.06,15.36 0.06,22.59 0,400.35 -73.43,797.86 -215.83,1171.7 -149.87,379.44 -361.61,733.82 -624.37,1045.86 -286.07,340.64 -609.97,650.93 -962.73,922.49l0 1012 -1406.87 -6.87zm2319.18 246.26l0 428.41 1518.01 0 0 1494.39 -1518.01 -1922.8z"/>
  <path class="fil6 str2" d="M40907.76 25540.33l-12125.49 0c-1084.05,0 -1963.23,879.18 -1963.23,1963.29l0 6775.37c0,1084.11 879.18,1963.28 1963.29,1963.28l10577.07 0 3373.34 2948.31 -1624.26 -2958.43c1000.25,-104.33 1760.46,-947.54 1760.94,-1953.16l-0.06 -6775.37c0.06,0 0.06,0 0.06,0 0,-1083.63 -877.97,-1962.56 -1961.6,-1963.29l-0.06 0z"/>
  <path class="fil7 str2" d="M32442.35 31116.47c0.06,-421.9 -342.09,-764.06 -764,-764.06 -421.91,0 -764.07,342.16 -764.07,764.06 0,421.91 342.16,764.07 764.07,764.07 421.91,0 764.06,-342.16 764.06,-764.07l-0.06 0z"/>
  <path class="fil7 str2" d="M35609.92 31116.47c0.06,-421.9 -342.09,-764.06 -764,-764.06 -421.91,0 -764.06,342.16 -764.06,764.06 0,421.91 342.15,764.07 764.06,764.07 421.91,0 764.06,-342.16 764.06,-764.07l-0.06 0z"/>
  <path class="fil7 str2" d="M38775.81 31116.47c0.06,-421.9 -342.1,-764.06 -764.01,-764.06 -421.91,0 -764.06,342.16 -764.06,764.06 0,421.91 342.15,764.07 764.06,764.07 421.91,0 764.07,-342.16 764.07,-764.07l-0.06 0z"/>
  <line class="fil8 str2" x1="7354.77" y1="52749.75" x2="10092.24" y2= "78977.52" />
  <line class="fil8 str2" x1="10036.58" y1="78493.44" x2="8643.39" y2= "77027.72" />
  <path class="fil0 str2" d="M9102.16 77499.99c-5.66,-494.56 -225.53,-962.97 -602.2,-1283.56 -387.93,-347.45 -2433.87,-1207.66 -2627.84,-487.45 -210.77,789.37 1882.39,2329.3 3230.04,1771.01z"/>
  <line class="fil8 str2" x1="9102.16" y1="77506.74" x2="7155.74" y2= "76294.02" />
  <line class="fil8 str2" x1="9090.36" y1="69383.72" x2="7715.72" y2= "68145.7" />
  <path class="fil0 str2" d="M8176.18 68626.4c-6.45,-495.16 -226.62,-964.17 -603.65,-1285.42 -387.93,-347.46 -2433.87,-1207.66 -2627.84,-487.45 -211.01,784.48 1882.15,2322.73 3231.49,1772.87z"/>
  <line class="fil8 str2" x1="8176.18" y1="68626.4" x2="6228.07" y2= "67412" />
  <line class="fil8 str2" x1="9473.23" y1="73254.63" x2="8095.22" y2= "71785.54" />
  <path class="fil0 str2" d="M8555.68 72271.3c-5.66,-494.55 -225.53,-962.97 -602.2,-1283.56 -389.62,-347.45 -2433.87,-1207.65 -2627.84,-487.44 -212.46,777.55 1882.39,2315.8 3230.04,1771z"/>
  <line class="fil8 str2" x1="8555.68" y1="72264.56" x2="6607.57" y2= "71051.84" />
  <line class="fil8 str2" x1="8478.09" y1="63640.6" x2="7098.4" y2= "62233.91" />
  <path class="fil0 str2" d="M7562.23 62712.92c-5.66,-494.55 -225.53,-962.97 -602.2,-1283.55 -389.62,-347.46 -2433.87,-1207.66 -2629.53,-487.45 -214.14,784.3 1882.39,2322.55 3231.73,1771z"/>
  <line class="fil8 str2" x1="7558.86" y1="62712.92" x2="5610.75" y2= "61500.21" />
  <line class="fil8 str2" x1="7813.55" y1="57317.26" x2="6479.39" y2= "56296.82" />
  <path class="fil0 str2" d="M6938.16 56775.83c-5.48,-494.91 -225.35,-964.17 -602.14,-1285.36 -387.94,-347.46 -2433.87,-1207.66 -2627.84,-487.45 -210.83,784.42 1882.33,2322.67 3229.98,1772.81z"/>
  <line class="fil8 str2" x1="6938.16" y1="56775.83" x2="4991.74" y2= "55561.43" />
  <line class="fil8 str2" x1="9901.65" y1="76472.81" x2="11053.64" y2= "74595.54" />
  <path class="fil0 str2" d="M10702.82 75160.57c-21.63,-109.99 -32.95,-222.34 -32.95,-334.68 0,-378.66 125.71,-746.9 356.91,-1046.7 308.66,-419.98 2131.95,-1686.68 2470.97,-1012.01 367.58,715.15 -1362.95,2653.14 -2794.93,2393.39z"/>
  <line class="fil8 str2" x1="10702.82" y1="75160.57" x2="12072.4" y2= "73875.33" />
  <line class="fil8 str2" x1="8903.14" y1="66895.87" x2="10053.45" y2= "65018.61" />
  <path class="fil0 str2" d="M9702.62 65581.96c-21.63,-110 -32.95,-222.34 -32.95,-334.69 0,-378.66 125.72,-746.89 356.91,-1046.7 308.66,-418.29 1735.59,-1470.78 2074.61,-806.23 367.57,723.58 -964.9,2449.05 -2398.57,2187.62z"/>
  <line class="fil8 str2" x1="9702.62" y1="65581.96" x2="11456.76" y2= "63907.09" />
  <line class="fil8 str2" x1="8462.91" y1="62687.62" x2="9614.91" y2= "60810.36" />
  <path class="fil0 str2" d="M9264.08 61373.71c-21.92,-110.48 -33.25,-223.67 -33.25,-336.43 0,-377.82 125.12,-745.63 355.47,-1045.02 308.66,-419.98 2131.95,-1686.67 2470.98,-1012 369.32,715.21 -1361.21,2653.19 -2793.2,2393.45z"/>
  <line class="fil8 str2" x1="9264.08" y1="61373.71" x2="11016.54" y2= "59697.15" />
  <line class="fil8 str2" x1="7818.61" y1="56516.09" x2="8970.6" y2= "54638.82" />
  <path class="fil0 str2" d="M8619.78 55202.17c-21.63,-109.94 -32.89,-222.1 -32.89,-334.2 0,-378.36 125.71,-746.24 356.85,-1045.44 308.66,-419.98 2131.95,-1686.67 2470.97,-1020.44 364.2,723.53 -1362.95,2661.51 -2794.93,2400.08z"/>
  <line class="fil8 str2" x1="8619.78" y1="55202.17" x2="10372.23" y2= "53527.3" />
  <path class="fil0 str2" d="M7327.78 52570.96c-21.86,-110.54 -33.19,-223.31 -33.19,-336.07 0,-378.9 125.72,-747.32 357.16,-1047.12 308.66,-419.99 2131.95,-1686.68 2470.97,-1012.01 367.58,718.65 -1362.95,2656.63 -2794.94,2395.2z"/>
  <line class="fil8 str2" x1="7327.78" y1="52570.96" x2="9080.24" y2= "50896.09" />
  <path class="fil0 str2" d="M7428.98 52643.49c-51.68,4.45 -104.69,7.16 -156.92,7.16 -440.34,0 -864,-170.17 -1182.23,-474.37 -386.25,-350.83 -1452.23,-2297.25 -755.63,-2563.75 757.25,-291.79 2502.96,1632.7 2094.78,3030.96z"/>
  <line class="fil8 str2" x1="7428.98" y1="52643.49" x2="5946.4" y2= "50724.05" />
  <line class="fil8 str2" x1="12357.44" y1="44124.1" x2="12357.44" y2= "79046.67" />
  <line class="fil8 str2" x1="16164.26" y1="57157.02" x2="13875.45" y2= "78937.04" />
  <line class="fil8 str2" x1="14482.65" y1="73484.02" x2="13342.46" y2= "72532.74" />
  <path class="fil0 str2" d="M13698.35 72861.64c21.44,-109.03 32.35,-220.47 32.35,-331.67 0,-379.81 -125.9,-749.07 -357.76,-1049.78 -308.66,-418.29 -2133.64,-1686.67 -2470.98,-1012 -367.81,718.58 1362.72,2654.88 2796.39,2393.45z"/>
  <line class="fil8 str2" x1="13698.35" y1="72861.64" x2="12042.04" y2= "71272.79" />
  <line class="fil8 str2" x1="14057.61" y1="77506.74" x2="12968.02" y2= "75938.13" />
  <path class="fil0 str2" d="M13320.53 76501.48c21.45,-109.03 32.35,-220.47 32.35,-331.67 0,-379.81 -125.9,-749.07 -357.75,-1049.78 -308.67,-418.29 -2133.65,-1686.67 -2470.98,-1012 -367.82,718.58 1362.71,2654.88 2796.38,2393.45z"/>
  <line class="fil8 str2" x1="13320.53" y1="76501.48" x2="11664.22" y2= "74912.63" />
  <line class="fil8 str2" x1="15059.49" y1="67653.19" x2="13959.78" y2= "66384.81" />
  <path class="fil0 str2" d="M14308.92 66949.85c21.45,-109.03 32.35,-220.47 32.35,-331.67 0,-379.81 -125.9,-749.07 -357.75,-1049.78 -308.66,-419.98 -2133.65,-1686.67 -2472.67,-1012 -364.44,716.89 1367.78,2654.88 2798.07,2393.45z"/>
  <line class="fil8 str2" x1="14312.3" y1="66949.85" x2="12655.98" y2= "65361" />
  <line class="fil8 str2" x1="15638.02" y1="62095.6" x2="14577.11" y2= "60447.72" />
  <path class="fil0 str2" d="M14927.93 61011.07c21.45,-109.03 32.35,-220.47 32.35,-331.67 0,-379.8 -125.9,-749.06 -357.75,-1049.77 -308.67,-419.99 -2133.65,-1686.68 -2470.98,-1012.01 -367.82,716.9 1362.71,2654.89 2796.38,2393.45z"/>
  <line class="fil8 str2" x1="14927.93" y1="61011.07" x2="13271.62" y2= "59422.23" />
  <line class="fil8 str2" x1="14766.01" y1="71318.33" x2="16278.96" y2= "69719.37" />
  <path class="fil0 str2" d="M15826.93 70198.38c5.6,-494.92 225.47,-964.17 602.26,-1285.36 387.94,-347.46 2433.87,-1209.35 2627.84,-489.14 202.28,784.42 -1880.76,2329.42 -3230.1,1774.5z"/>
  <line class="fil8 str2" x1="15818.5" y1="70198.38" x2="17879.61" y2= "68919.88" />
  <line class="fil8 str2" x1="15202.86" y1="67110.08" x2="16715.81" y2= "65509.43" />
  <path class="fil0 str2" d="M16255.35 65988.44c5.78,-494.55 225.65,-962.97 602.32,-1283.55 387.93,-347.46 2433.87,-1209.35 2627.84,-489.14 210.65,782.62 -1880.83,2320.86 -3230.16,1772.69z"/>
  <line class="fil8 str2" x1="16255.35" y1="65988.44" x2="18316.46" y2= "64709.95" />
  <line class="fil8 str2" x1="15825.24" y1="60623.14" x2="17355.06" y2= "59337.89" />
  <path class="fil0 str2" d="M16896.28 59818.59c5.6,-494.91 225.47,-964.17 602.26,-1285.36 387.94,-347.46 2432.19,-1209.35 2627.84,-489.14 210.71,784.43 -1882.45,2324.36 -3230.1,1774.5z"/>
  <line class="fil8 str2" x1="16896.28" y1="59818.59" x2="18957.4" y2= "58538.41" />
  <path class="fil0 str2" d="M16172.7 56976.55c5.78,-495.1 225.47,-963.99 602.2,-1285.25 387.94,-347.45 2433.87,-1207.65 2627.84,-487.44 210.77,782.61 -1880.7,2322.54 -3230.04,1772.69z"/>
  <line class="fil8 str2" x1="16172.7" y1="56976.55" x2="18233.81" y2= "55698.05" />
  <path class="fil0 str2" d="M16257.03 57067.63c-491.18,-57.77 -934.11,-324.62 -1214.4,-732.14 -303.6,-423.35 -946.23,-2546.87 -209.15,-2664.94 801.17,-121.32 2111.71,2113.52 1423.55,3397.08z"/>
  <line class="fil8 str2" x1="16257.03" y1="57067.63" x2="15201.17" y2= "54885.07" />
  <line class="fil8 str2" x1="12303.47" y1="78436.09" x2="11050.27" y2= "76762.91" />
  <path class="fil0 str2" d="M11458.45 77287.47c4.76,-52.35 7.29,-105.18 7.29,-157.77 0,-440.4 -169.4,-864.3 -472.7,-1183.32 -350.82,-384.56 -2295.56,-1453.91 -2563.74,-757.31 -291.91,757.49 1630.89,2506.57 3029.15,2098.4z"/>
  <line class="fil8 str2" x1="11458.45" y1="77287.47" x2="9646.96" y2= "75877.41" />
  <line class="fil8 str2" x1="12347.32" y1="70363.67" x2="11050.27" y2= "69157.7" />
  <path class="fil0 str2" d="M11458.45 69680.57c4.69,-51.86 7.22,-104.63 7.22,-156.8 0,-440.22 -169.45,-863.64 -472.63,-1182.36 -350.82,-386.24 -2295.56,-1453.91 -2563.74,-757.31 -291.91,757.25 1630.89,2504.65 3029.15,2096.47z"/>
  <line class="fil8 str2" x1="11458.45" y1="69680.57" x2="9646.96" y2= "68272.2" />
  <line class="fil8 str2" x1="12391.18" y1="61975.85" x2="11050.27" y2= "60226.77" />
  <path class="fil0 str2" d="M11458.45 60751.32c4.69,-51.86 7.22,-104.63 7.22,-156.8 0,-440.22 -169.45,-863.63 -472.63,-1182.35 -350.82,-386.25 -2295.56,-1453.92 -2563.74,-757.32 -291.91,757.26 1630.89,2504.65 3029.15,2096.47z"/>
  <line class="fil8 str2" x1="11458.45" y1="60751.32" x2="9646.96" y2= "59342.95" />
  <line class="fil8 str2" x1="12303.47" y1="55411.32" x2="11050.27" y2= "54282.93" />
  <path class="fil0 str2" d="M11458.45 54807.49c4.76,-52.17 7.29,-104.88 7.29,-157.41 0,-439.98 -169.46,-863.39 -472.82,-1181.81 -350.82,-386.25 -2295.56,-1453.91 -2563.74,-757.32 -291.79,757.32 1631.01,2504.71 3029.27,2096.54z"/>
  <line class="fil8 str2" x1="11458.45" y1="54807.49" x2="9646.96" y2= "53399.12" />
  <line class="fil8 str2" x1="12376" y1="49464.11" x2="11075.57" y2= "48512.82" />
  <path class="fil0 str2" d="M11458.45 48836.66c4.69,-51.8 7.22,-104.57 7.22,-156.74 0,-440.22 -169.45,-863.63 -472.63,-1182.35 -350.82,-386.25 -2295.56,-1453.92 -2563.74,-757.32 -291.91,757.2 1630.89,2504.59 3029.15,2096.41z"/>
  <line class="fil8 str2" x1="11458.45" y1="48836.66" x2="9646.96" y2= "47428.29" />
  <line class="fil8 str2" x1="12360.82" y1="68736.04" x2="13700.04" y2= "66988.64" />
  <path class="fil0 str2" d="M13296.92 67513.2c-4.64,-52.17 -7.17,-104.88 -7.17,-157.41 0,-439.98 169.45,-863.39 472.81,-1181.81 350.83,-386.25 2295.56,-1453.91 2563.75,-759 286.61,759 -1634.51,2506.39 -3029.39,2098.22z"/>
  <line class="fil8 str2" x1="13293.55" y1="67513.2" x2="15211.29" y2= "66028.92" />
  <line class="fil8 str2" x1="12360.82" y1="62766.9" x2="13700.04" y2= "61017.82" />
  <path class="fil0 str2" d="M13296.92 61542.37c-4.58,-51.86 -7.11,-104.63 -7.11,-156.8 0,-440.22 169.39,-863.63 472.63,-1182.35 350.83,-386.25 2295.56,-1453.92 2563.75,-757.32 286.73,757.26 -1634.39,2504.65 -3029.27,2096.47z"/>
  <line class="fil8 str2" x1="13293.55" y1="61542.37" x2="15211.29" y2= "60058.1" />
  <line class="fil8 str2" x1="12360.82" y1="54874.95" x2="13700.04" y2= "53127.56" />
  <path class="fil0 str2" d="M13296.92 53652.12c-4.64,-52.35 -7.17,-105.18 -7.17,-157.77 0,-440.4 169.39,-864.3 472.69,-1183.32 350.83,-384.56 2295.56,-1453.91 2563.75,-757.32 286.73,757.5 -1634.39,2501.52 -3029.27,2098.41z"/>
  <line class="fil8 str2" x1="13293.55" y1="53652.12" x2="15211.29" y2= "52166.16" />
  <line class="fil8 str2" x1="12418.16" y1="48064.17" x2="13732.08" y2= "47040.36" />
  <path class="fil0 str2" d="M13296.92 47446.85c-4.58,-51.81 -7.11,-104.58 -7.11,-156.75 0,-440.22 169.39,-863.63 472.63,-1182.35 350.83,-386.25 2295.56,-1453.92 2563.75,-757.32 286.73,757.2 -1634.39,2504.59 -3029.27,2096.42z"/>
  <line class="fil8 str2" x1="13293.55" y1="47446.85" x2="15211.29" y2= "45962.57" />
  <path class="fil0 str2" d="M12284.92 44695.88c-4.58,-51.68 -7.11,-104.33 -7.11,-156.38 0,-440.58 170.11,-864.48 474.44,-1182.78 350.82,-386.25 2295.56,-1453.91 2563.74,-757.31 284.93,757.25 -1637.88,2504.65 -3031.07,2096.47z"/>
  <line class="fil8 str2" x1="12279.86" y1="44695.88" x2="14199.29" y2= "43211.61" />
  <path class="fil0 str2" d="M12374.31 44778.53c-494.68,-6.75 -962.79,-227.04 -1283.5,-603.77 -347.45,-389.62 -1204.28,-2435.56 -484.07,-2629.52 782.55,-209.21 2319.11,1883.95 1767.57,3233.29z"/>
  <line class="fil8 str2" x1="12374.31" y1="44778.53" x2="11099.18" y2= "42715.73" />
  <path class="fil7 str2" d="M59029.38 79046.67l-2612.66 -10580.5 -20181.04 143.36c-1054.17,1776.07 -3305.88,7790.75 -4277.41,10437.14l27071.11 0z"/>
  <path class="fil6 str2" d="M72028.57 63207.12l1544.99 264.81c0,0 3177.7,-220.96 3442.5,-220.96 264.81,0 2164,1545 2164,1545l-3223.23 -43.86c0,0 -2293.87,661.18 -3088.3,661.18 -794.42,0 -1765.94,-925.98 -1765.94,-925.98l925.98 -1280.19z"/>
  <g>
   <path class="fil6" d="M72647.58 64222.5c0,0 2867.34,87.7 3177.69,43.85 310.35,-43.85 971.53,-441.91 971.53,-43.85 0,398.05 -441.91,264.81 -843.34,529.61 -234.87,157.41 -486.55,290.95 -748.7,396.19 -262.16,105.24 -619.01,177.1 -1148.63,264.81 -529.61,87.71 -661.17,43.85 -1190.79,0 -316.07,-25.48 -620.69,-131.98 -883.94,-308.66l666.18 -881.95zm0 0l0 0 0 0z"/>
   <path id="1" class="fil8 str2" d="M72647.58 64222.5c0,0 2867.34,87.7 3177.69,43.85 310.35,-43.85 971.53,-441.91 971.53,-43.85 0,398.05 -441.91,264.81 -843.34,529.61 -234.87,157.41 -486.55,290.95 -748.7,396.19 -262.16,105.24 -619.01,177.1 -1148.63,264.81 -529.61,87.71 -661.17,43.85 -1190.79,0 -316.07,-25.48 -620.69,-131.98 -883.94,-308.66m666.18 -881.95l0 0 0 0z"/>
  </g>
  <g>
   <path class="fil9" d="M64693.23 53905.12l-2192.68 -4540.53c0,0 92.77,-5092.06 0,-5832.51 -92.76,-740.45 -183.84,-1435.36 -1619.2,-1855.34 -1435.36,-419.99 -9907.52,276.61 -9907.52,276.61 0,0 -2256.77,222.64 -4253.79,575.16 -1997.02,352.51 -6409.36,377.81 -6635.37,1072.72 -226.02,694.91 -1265.01,16529.4 -1265.01,16529.4l-4142.47 9320.55c0,0 3879.35,3194.56 11943.33,2730.73 8063.99,-463.84 10884.11,-2946.62 10884.11,-2946.62l-2268.58 -8096.03c0,0 3749.48,-3332.87 3842.24,-4351.62 92.77,-1018.75 138.31,-1806.43 138.31,-1806.43 0,0 2315.8,3565.63 2777.95,3843.93 462.15,278.3 9192.37,6395.87 9192.37,6395.87l1204.29 -2130.27 -7385.95 -8526.13 -312.03 -644.31 0 -15.18zm0 0l0 0 0 0z"/>
   <path id="1" class="fil8 str2" d="M64693.23 53905.12l-2192.68 -4540.53c0,0 92.77,-5092.06 0,-5832.51 -92.76,-740.45 -183.84,-1435.36 -1619.2,-1855.34 -1435.36,-419.99 -9907.52,276.61 -9907.52,276.61 0,0 -2256.77,222.64 -4253.79,575.16 -1997.02,352.51 -6409.36,377.81 -6635.37,1072.72 -226.02,694.91 -1265.01,16529.4 -1265.01,16529.4l-4142.47 9320.55c0,0 3879.35,3194.56 11943.33,2730.73 8063.99,-463.84 10884.11,-2946.62 10884.11,-2946.62l-2268.58 -8096.03c0,0 3749.48,-3332.87 3842.24,-4351.62 92.77,-1018.75 138.31,-1806.43 138.31,-1806.43 0,0 2315.8,3565.63 2777.95,3843.93 462.15,278.3 9192.37,6395.87 9192.37,6395.87l1204.29 -2130.27 -7385.95 -8526.13 -312.03 -644.31m0 -15.18l0 0 0 0z"/>
  </g>
  <line class="fil8 str2" x1="59216.6" y1="54966.03" x2="59999.22" y2= "47517.69" />
  <path class="fil8 str2" d="M59805.25 49936.37c0,0 1452.22,-1305.48 2032.44,-2949.99"/>
  <path class="fil8 str2" d="M61245.67 50334.43c236.61,-62.77 467.81,-148.01 688.34,-253"/>
  <path class="fil8 str2" d="M59660.2 50710.56c0,0 506,-97.83 1054.17,-234.45"/>
  <path class="fil0 str2" d="M49078.01 41772.88l-1666.44 5972.51 1806.43 1518 -1991.96 1944.74c0,0 740.45,2916.25 1806.43,5184.83 1065.97,2268.58 1759.2,3295.76 1759.2,3295.76 0,0 4306.07,-2037.5 5415.9,-3842.24 1109.84,-1804.74 2592.42,-4629.92 2592.42,-4629.92l-1295.36 -1295.37 1897.5 -1012c0,0 -624.06,-2671.69 -1012,-4351.62 -219.75,-977.91 -561.54,-1929.49 -1011.76,-2825.35l-8300.36 40.66z"/>
  <path class="fil6 str2" d="M50467.83 42545.37c0,0 -40.48,5333.26 -199.03,7205.47 -158.55,1872.21 0,4656.91 239.51,5851.07 239.5,1194.16 716.83,2987.1 716.83,2987.1 0,0 3263.71,-2668.32 3702.25,-3783.21 438.53,-1114.89 1232.96,-5532.29 1232.96,-5532.29l716.83 -5097.12 -6409.35 -1631.02z"/>
  <polygon class="fil6 str2" points="50626.37,41589.03 50268.8,49074.48 53453.24,47003.25 56121.55,49949.87 56797.91,43818.81 "/>
  <path class="fil6 str2" d="M51781.74 44137.59l1320.67 6050.1 2428.81 -4935.21c0,0 -2877.47,-114.69 -3749.48,-1114.89z"/>
  <path class="fil7 str2" d="M49113.43 37944.13c-416.37,-651.48 -791.05,-1342.71 -1116.22,-2044.79 -425.04,-963.09 -347.45,-1349.34 75.9,-2351.22 423.36,-1001.89 2158.94,-3892.85 3316,-4395.48 669.97,-295.58 1388.74,-478.71 2119.55,-538.95 730.81,-60.24 4279.09,-114.69 6240.69,1966.66 1961.6,2081.36 2003.77,5628.43 1541.62,6554.42 -339.2,685.69 -935.14,1211.99 -1657.88,1463.73 -384.56,116.38 -689.85,224.32 -689.85,224.32 0,0 -465.52,0 -774.18,0 -308.67,0 -1927.87,-924.29 -3354.8,-2120.14 -658.04,-523.72 -1291.57,-1094.41 -1887.93,-1688 -596.36,-593.59 -1658,1194.16 -2234.84,1733.9 -576.84,539.73 -733.7,887.19 -733.7,887.19l-224.33 868.63 -620.03 -560.27z"/>
  <path class="fil7 str2" d="M49076.32 38714.94c0,0 -1426.93,-231.08 -2236.53,539.73 -809.6,770.81 -887.19,2698.68 -116.38,3277.21 770.81,578.53 2530.01,1091.28 3354.79,843.34 824.79,-247.95 1079.48,-1042.37 1079.48,-1855.34 0,-812.98 -809.61,-2428.81 -964.78,-2735.79 -155.18,-306.97 -1116.58,-69.15 -1116.58,-69.15z"/>
  <path class="fil6 str2" d="M49737.5 38504.1c0,0 -691.54,-1118.26 -1224.53,-168.66 -532.99,949.59 266.5,1863.77 843.34,2182.55 281.13,168.91 587.14,294.99 905.86,372.7l-524.67 -2386.59z"/>
  <path class="fil6 str2" d="M58948.42 38822.88c0,0 1012,-585.27 1118.26,266.5 106.26,851.77 -639.25,1703.54 -1012,1970.03 -372.76,266.5 -639.25,479.02 -639.25,479.02l532.99 -2715.55z"/>
  <path class="fil6 str2" d="M49631.24 36959.11c0,0 639.25,5120.74 1278.49,6176.6 639.25,1055.86 1811.49,2928.06 3302.51,2928.06 1491.02,0 3140.59,-1649.56 3779.84,-3194.56 639.24,-1544.99 958.03,-4048.01 958.03,-4048.01 0,0 -2503.03,-1012.01 -4473.06,-3036.01 -1970.04,-2024.01 -1489.33,-2290.51 -1489.33,-2290.51 0,0 -2292.19,2985.42 -3356.48,3464.43z"/>
  <path class="fil8 str2" d="M53662.38 41644.69c0,0 964.78,770.81 1813.18,77.59"/>
  <path class="fil8 str2" d="M53085.54 42762.95c0,0 1310.55,1271.75 3005.65,-38.79"/>
  <path class="fil7" d="M52857.84 39126.49c-36.92,185.29 -199.69,318.78 -388.66,318.78 -218.84,0 -396.36,-177.53 -396.36,-396.37 0,-218.55 176.92,-395.89 395.46,-396.37 222.52,24.16 391.25,212.1 391.25,436.01 0,12.65 -0.6,25.36 -1.69,37.95z"/>
  <path class="fil7" d="M56829.96 39369.37c-36.27,187.04 -200.17,322.15 -390.71,322.15 -219.81,0 -398.05,-178.24 -398.05,-398.05 0,-219.63 177.88,-397.76 397.51,-398.06 223.42,24.16 392.81,212.88 392.81,437.63 0,12.11 -0.54,24.22 -1.5,36.27l-0.06 0.06z"/>
  <path class="fil8 str2" d="M51584.4 37713.05c0,0 732.02,-463.83 1927.87,-77.58"/>
  <path class="fil8 str2" d="M55860.12 37905.33c0,0 539.74,-539.73 2236.53,578.53"/>
  <path class="fil8 str2" d="M51622.78 38007.5l2112.01 112.89c384.26,20.54 679.07,348.65 658.53,732.79l-45.12 842.14c-20.42,384.14 -348.54,678.94 -732.68,658.46l-2112.14 -112.95c-384.08,-20.54 -678.88,-348.65 -658.34,-732.79l44.94 -842.14c20.6,-384.14 348.72,-678.94 732.86,-658.4z"/>
  <path class="fil8 str2" d="M56026.44 38096.11l2115.09 105.72c384.62,19.27 680.93,346.79 661.71,731.47l-42.1 843.34c-19.28,384.68 -346.79,680.99 -731.48,661.78l-2115.08 -105.78c-384.57,-19.22 -680.88,-346.73 -661.66,-731.42l42.1 -843.33c19.28,-384.68 346.8,-681 731.48,-661.78z"/>
  <line class="fil8 str2" x1="54389.34" y1="38666.02" x2="55155.09" y2= "38716.62" />
  <line class="fil8 str2" x1="50892.87" y1="38642.41" x2="49690.27" y2= "38274.72" />
  <line class="fil8 str2" x1="58602.65" y1="39082.63" x2="58948.42" y2= "38822.88" />
  <path class="fil6 str2" d="M32460.9 52802.03l-462.15 -1349.34c0,0 -371.06,-1295.36 -787.67,-1855.34 -416.61,-559.97 -1202.6,-740.45 -1528.13,-1157.05 -325.53,-416.61 -740.45,-1573.67 -1012,-1897.51 -271.56,-323.84 -833.22,-47.23 -694.91,693.22 138.3,740.45 462.15,973.21 602.14,1251.51 139.99,278.3 462.15,1012.01 462.15,1012.01 0,0 -3009.03,-506.01 -3194.56,-554.92 -185.53,-48.91 -740.45,-647.68 -878.76,-1012 -138.3,-364.32 -92.76,-1855.34 -649.37,-1388.14 -556.6,467.21 -231.07,1435.36 -138.3,1666.44 92.76,231.07 0,1855.34 231.07,2685.18 231.07,829.85 1012,1666.44 2175.81,2221.35 1163.8,554.92 3427.32,742.14 3427.32,742.14l878.76 878.75 1568.6 -1936.3z"/>
  <path class="fil6 str2" d="M23850.43 50533.46c0,0 -602.14,-1082.85 -602.14,-1875.58 0,-792.74 53.98,-1531.5 465.52,-1339.22 411.55,192.28 337.34,168.67 453.72,902.37 95,563.47 255.53,1114.59 475.64,1641.07 55.66,82.65 492.51,1180.67 109.64,1204.29 -382.88,23.61 -902.38,-532.93 -902.38,-532.93z"/>
  <path class="fil6 str2" d="M25103.63 50533.46c0,0 -833.21,-2361.35 -1249.82,-1944.74 -416.61,416.61 -371.07,925.99 0,1944.74 371.07,1018.75 1157.06,1806.42 1804.74,1899.19l649.37 92.77 -1204.29 -1991.96z"/>
  <g>
   <path class="fil6" d="M30192.33 52339.88c0,0 -1012.01,-833.21 -1666.44,-833.21 -654.43,0 -2175.81,231.07 -2175.81,231.07 0,0 -1064.29,-3565.63 -1388.13,-2963.48 -323.84,602.14 -232.76,1204.28 92.77,2130.27 325.53,925.98 785.99,1759.2 1518.01,2221.34 732.01,462.15 3427.32,742.14 3427.32,742.14l192.28 -1528.13zm0 0l0 0 0 0z"/>
   <path id="1" class="fil8 str2" d="M30192.33 52339.88c0,0 -1012.01,-833.21 -1666.44,-833.21 -654.43,0 -2175.81,231.07 -2175.81,231.07 0,0 -1064.29,-3565.63 -1388.13,-2963.48 -323.84,602.14 -232.76,1204.28 92.77,2130.27 325.53,925.98 785.99,1759.2 1518.01,2221.34 732.01,462.15 3427.32,742.14 3427.32,742.14m192.28 -1528.13l0 0 0 0z"/>
  </g>
  <polygon class="fil6 str2" points="33526.88,53451.4 32460.9,52385.42 30101.25,54654 31258.3,55579.98 "/>
  <g>
   <path class="fil9" d="M44237.25 42827.05c0,0 -3304.19,114.69 -4090.18,484.07 -785.99,369.38 -880.44,925.99 -925.98,1158.75 -45.54,232.76 -1435.36,12592.7 -1435.36,12592.7l-4537.15 -4306.08 -2916.26 2816.75c0,0 4027.78,5277.6 4953.76,6712.96 925.98,1435.36 1759.2,2777.95 2545.19,2916.25 785.99,138.31 1065.98,185.54 2037.5,-91.08 971.52,-276.61 2223.04,-2440.61 2270.26,-2622.77 47.23,-182.16 2130.27,-11859 2130.27,-11859l-32.05 -7802.55zm0 0l0 0 0 0z"/>
   <path id="1" class="fil8 str2" d="M44237.25 42827.05c0,0 -3304.19,114.69 -4090.18,484.07 -785.99,369.38 -880.44,925.99 -925.98,1158.75 -45.54,232.76 -1435.36,12592.7 -1435.36,12592.7l-4537.15 -4306.08 -2916.26 2816.75c0,0 4027.78,5277.6 4953.76,6712.96 925.98,1435.36 1759.2,2777.95 2545.19,2916.25 785.99,138.31 1065.98,185.54 2037.5,-91.08 971.52,-276.61 2223.04,-2440.61 2270.26,-2622.77 47.23,-182.16 2130.27,-11859 2130.27,-11859m-32.05 -7802.55l0 0 0 0z"/>
  </g>
  <line class="fil8 str2" x1="40125.15" y1="58416.97" x2="40742.47" y2= "58774.54" />
  <line class="fil8 str2" x1="37785.73" y1="57062.57" x2="39745.64" y2= "58197.7" />
  <path class="fil8 str2" d="M45291.43 63186.88c-372.76,155.17 -716.84,290.11 -1012.01,396.37"/>
  <path class="fil8 str2" d="M52107.27 60064.85c0,0 -3127.09,1518 -5675.65,2636.27"/>
  <line class="fil8 str2" x1="53687.69" y1="60280.74" x2="49737.5" y2= "62362.1" />
  <path class="fil7 str2" d="M86361.92 64234.3l5164.59 0c0,0 747.2,0 475.65,1155.38 -271.56,1155.37 -1359.46,7473.64 -1496.08,9851.85 -136.62,2378.21 -271.56,3805.14 -271.56,3805.14l-20039.36 0 2417 -13933.61c95.12,-544.98 568.41,-942.91 1121.58,-942.91 1.08,0 2.35,0 3.49,0l12624.69 64.15z"/>
  <path class="fil0 str2" d="M70223.83 55186.99c0,0 -5866.25,1642.82 -5960.7,2206.17 -94.46,563.35 -2580.61,14314.79 -2580.61,14314.79 0,0 -12290.79,-3191.18 -13000.88,-3191.18 -710.09,0 -3427.32,2298.93 -3801.76,2580.61 -374.44,281.67 -892.25,517.81 -939.48,1079.47 -47.23,561.66 -516.12,1455.6 0,1877.27 516.12,421.66 843.34,799.48 1032.24,563.34 188.91,-236.13 -45.54,-1032.24 -92.76,-1180.67 -47.23,-148.42 2956.74,-1686.67 2956.74,-1686.67l1219.46 -281.67c-434.86,386.97 -907.43,735.02 -1407.83,1031.88 -797.8,468.89 -1077.78,1268.38 -656.12,1313.92 421.67,45.54 468.9,-140 1686.68,-516.13 1217.78,-376.12 2251.71,-1595.59 2251.71,-1595.59 0,0 11874.18,5539.04 12531.98,5539.04 657.8,0 563.35,139.99 1126.7,-610.58 563.35,-750.57 2393.39,-6100.7 2393.39,-6100.7l703.34 6945.72 0 1550.06 18448.29 0.36c0,0 -94.45,-19995.51 -187.22,-20277.19 -92.77,-281.67 -7296.55,-4820.51 -7296.55,-4820.51l-8426.62 1258.26z"/>
  <line class="fil8 str2" x1="65244.77" y1="68307.62" x2="64838.28" y2= "67786.44" />
  <line class="fil8 str2" x1="66985.42" y1="70535.72" x2="65602.35" y2= "68766.4" />
  <line class="fil8 str2" x1="65214.41" y1="64806.09" x2="65001.89" y2= "64122.98" />
  <polyline class="fil8 str2" points="66045.94,64234.3 66985.42,70534.03 65433.68,65517.86 "/>
  <polygon class="fil6 str2" points="80136.41,54876.64 78650.45,53933.79 70217.08,55186.99 74158.84,63682.76 "/>
  <path class="fil10 str2" d="M69800.47 42646.57c-1121.63,772.5 -2720.6,2462.55 -2361.34,3542.02 377.82,1133.44 944.54,1384.76 944.54,1384.76 0,0 -506,1573.66 -62.41,2077.98 262.94,300.71 475.64,643.4 629.01,1012.18 153.37,368.78 -944.54,2644.71 -506,2960.11l440.22 313.72c0,0 755.63,3022.52 1322.35,3204.68 566.72,182.16 2266.89,-315.4 2266.89,-315.4l1712.1 4599.37 4471.37 -7492.2 -441.91 -1518.01c0,0 2644.7,-4343.18 1575.35,-7421.36 -615.64,-1772.69 -2211.23,-2997.22 -3972.11,-3511.65 -1944.74,-566.72 -3624.67,57.35 -5432.78,831.53 -204.81,91.14 -401.67,203.18 -585.28,332.27z"/>
  <path class="fil7 str2" d="M79783.89 44994.42c-615.63,-1772.69 -2211.22,-2997.22 -3972.11,-3511.65 -1944.74,-566.72 -3624.66,57.35 -5432.78,831.53 -201.49,93.31 -395.34,207.52 -575.15,337.45 -1121.64,772.5 -2720.61,2462.55 -2361.34,3542.02 377.81,1133.44 944.53,1384.76 944.53,1384.76 51.93,5.9 104.82,9.15 157.22,9.15 346.5,0 679.79,-134.69 929,-375.22 468.9,-468.9 1686.67,-1313.92 2675.06,-1180.67 988.39,133.24 985.02,1313.91 656.12,1877.26 -328.9,563.35 -421.67,1221.16 423.35,1408.38 845.03,187.22 1079.48,187.22 1079.48,843.33 0,656.12 -47.23,1180.67 468.89,1079.47 516.12,-101.2 563.35,-328.9 797.8,-843.33 234.45,-514.44 1266.69,-1313.92 1830.04,281.67 563.35,1595.59 -563.35,2346.16 -563.35,2346.16 491.3,-176.55 965.98,-404.38 1412.11,-675.09 335.28,-576.48 2519.52,-4503.05 1531.13,-7355.22z"/>
  <path class="fil8 str2" d="M69518.8 50400.21c0,0 1361.15,-610.58 2253.4,0"/>
  <path class="fil8 str2" d="M69473.26 54623.64c0,0 1453.91,563.35 2393.39,-468.9"/>
  <line class="fil8 str2" x1="68891.36" y1="53933.79" x2="69660.48" y2= "54061.98" />
  <path class="fil7" d="M71208.85 51466.19c0,264.81 -146.74,480.7 -337.34,480.7 -190.59,0 -328.9,-215.89 -328.9,-480.7 0,-264.81 146.74,-479.02 328.9,-479.02 182.16,0 337.34,214.21 337.34,479.02z"/>
  <path class="fil7" d="M72480.6 56829.81c0,0 1686.67,-656.12 2155.57,-985.02 468.89,-328.9 750.57,-563.35 750.57,-563.35l-2300.63 3051.19 -605.51 -1502.82z"/>
  <path class="fil10 str2" d="M52844.35 69462.99c-2148.82,-531.3 -3909.71,-946.22 -4162.71,-946.22 -705.03,0 -3427.32,2298.93 -3801.76,2580.61 -374.44,281.67 -892.25,517.81 -939.48,1079.47 -47.23,561.66 -516.12,1455.6 0,1877.27 516.12,421.66 843.34,799.48 1032.24,563.34 188.91,-236.13 -45.54,-1032.24 -92.76,-1180.67 -47.23,-148.42 2956.74,-1686.67 2956.74,-1686.67l1219.46 -281.67c-434.86,386.97 -907.43,735.02 -1407.83,1031.88 -797.8,468.89 -1077.78,1268.38 -656.12,1313.92 421.67,45.54 468.9,-140 1686.68,-516.13 1217.78,-376.12 2251.71,-1595.59 2251.71,-1595.59 0,0 548.17,256.38 1413.43,656.12 390.7,-607.26 599.37,-1315.49 599.37,-2038.47 0,-288.18 -33.55,-576.78 -98.79,-857.19l-0.18 0z"/>
  <line class="fil8 str2" x1="50933.35" y1="71707.95" x2="51449.47" y2= "70488.49" />
  <g>
   <path class="fil10" d="M46333.79 71191.83c0,0 -2298.94,1455.6 -2722.29,1737.27 -423.36,281.68 -1877.27,608.89 -1735.59,890.57 141.68,281.67 468.9,423.35 1126.7,234.45 748.4,-181.92 1490.42,-421.07 2205.69,-703.47 750.57,-328.9 2627.83,-1595.59 2627.83,-1595.59l-1502.34 -563.23zm0 0l0 0 0 0z"/>
   <path id="1" class="fil8 str2" d="M46333.79 71191.83c0,0 -2298.94,1455.6 -2722.29,1737.27 -423.36,281.68 -1877.27,608.89 -1735.59,890.57 141.68,281.67 468.9,423.35 1126.7,234.45 748.4,-181.92 1490.42,-421.07 2205.69,-703.47 750.57,-328.9 2627.83,-1595.59 2627.83,-1595.59m-1502.34 -563.23l0 0 0 0z"/>
  </g>
  <g>
   <path class="fil0" d="M83788.06 57259.91c0,0 3191.18,1408.37 3612.85,2206.17 421.67,797.8 1268.38,18216.07 1313.92,18722.07 1.93,20.97 2.95,42.41 2.95,63.61 0,351.07 -263.18,646.48 -611.84,686.9 -234.45,47.23 -15207.05,-45.54 -15628.71,-45.54 -421.67,0 -1455.6,-94.45 -2066.18,-376.13 -610.58,-281.67 -1079.47,-187.22 -1126.7,-939.47 -3.85,-131.99 -5.6,-270.35 -5.6,-403.36 0,-411.49 19.52,-828.28 53.19,-1237.96 0,-281.67 -187.22,-1079.47 0,-1550.05 187.22,-470.58 563.35,-468.9 750.57,-516.12 147.71,-11.99 297.04,-18.01 445.76,-18.01 148.73,0 298.06,6.02 446.13,18.07 201.62,-157.1 450.28,-242.52 706.05,-242.52 163.67,0 325.77,35.06 474.68,102.64 703.34,281.68 1877.27,1970.04 1877.27,1970.04 0,0 1126.7,328.9 2909.51,47.23 1782.81,-281.68 5819.02,-1126.7 5819.02,-1126.7l-1595.59 -9996.91 2622.72 -7363.96zm0 0l0 0 0 0z"/>
   <path id="1" class="fil8 str2" d="M83788.06 57259.91c0,0 3191.18,1408.37 3612.85,2206.17 421.67,797.8 1268.38,18216.07 1313.92,18722.07 1.93,20.97 2.95,42.41 2.95,63.61 0,351.07 -263.18,646.48 -611.84,686.9 -234.45,47.23 -15207.05,-45.54 -15628.71,-45.54 -421.67,0 -1455.6,-94.45 -2066.18,-376.13 -610.58,-281.67 -1079.47,-187.22 -1126.7,-939.47 -3.85,-131.99 -5.6,-270.35 -5.6,-403.36 0,-411.49 19.52,-828.28 53.19,-1237.96 0,-281.67 -187.22,-1079.47 0,-1550.05 187.22,-470.58 563.35,-468.9 750.57,-516.12 147.71,-11.99 297.04,-18.01 445.76,-18.01 148.73,0 298.06,6.02 446.13,18.07 201.62,-157.1 450.28,-242.52 706.05,-242.52 163.67,0 325.77,35.06 474.68,102.64 703.34,281.68 1877.27,1970.04 1877.27,1970.04 0,0 1126.7,328.9 2909.51,47.23 1782.81,-281.68 5819.02,-1126.7 5819.02,-1126.7l-1595.59 -9996.91m2622.72 -7363.96l0 0 0 0z"/>
  </g>
  <line class="fil8 str2" x1="82754.13" y1="74617.46" x2="82990.26" y2= "76307.51" />
  <path class="fil10 str2" d="M75103.38 78903.3c-492.51,-1631.01 -99.52,-2563.74 290.1,-3046.13 -8.49,0 -17.53,0 -25.9,0 -451.43,0 -903.57,-54.28 -1341.81,-159.99 -438.23,-105.72 -1180.67,-1686.68 -1877.27,-1970.04 -149.02,-67.89 -311.13,-102.95 -474.79,-102.95 -255.78,0 -504.44,85.42 -706.06,242.58 -148.06,-12.1 -297.39,-18.13 -446.12,-18.13 -148.73,0 -298.06,6.03 -446.13,18.07 -187.22,47.23 -563.35,47.23 -750.57,516.13 -187.22,468.89 0,1268.37 0,1550.05 -33.31,409.62 -52.83,826.41 -52.83,1237.9 0,133 1.75,271.37 5.3,402.57 47.23,752.26 516.13,657.8 1126.7,939.48 610.58,281.67 1642.82,376.12 2066.18,376.12l2633.2 14.34z"/>
  <polygon class="fil6 str2" points="47131.59,78159.48 27346.91,78159.48 23943.2,64166.84 43726.19,64166.84 "/>
  <path class="fil6 str2" d="M37897.05 71427.97c0,433.47 -1278.5,784.3 -2853.85,784.3 -1575.35,0 -2855.54,-347.46 -2855.54,-784.3 0,-436.85 1276.81,-782.62 2853.85,-782.62 1577.04,0 2855.54,354.2 2855.54,782.62z"/>
  <rect class="fil10 str2" x="27346.91" y="78159.48" width="32412.8" height="887.19"/>
  <rect class="fil6 str2" x="47408.2" y="78159.48" width="12351.51" height="887.19"/>
  <rect class="fil6 str2" x="48366.23" y="78412.48" width="1069.35" height="193.97"/>
  <rect class="fil6 str2" x="51086.83" y="78412.48" width="1069.35" height="193.97"/>
  <line class="fil8 str2" x1="103525.51" y1="79046.67" x2="4585.25" y2= "79046.67" />
 </g>
</svg>
